<svg version="1.1" id="Layer_1" xmlns="http://www.w3.org/2000/svg" xmlns:xlink="http://www.w3.org/1999/xlink" x="0px" y="0px"
	 width="100%" viewBox="0 0 654 176" enable-background="new 0 0 654 176" xml:space="preserve">
<path fill="#020202" opacity="1.000000" stroke="none" 
	d="
M654.000000,177.000000 
	C436.333344,177.000000 218.666656,177.000000 1.000000,177.000000 
	C1.000000,169.260727 1.000000,161.599045 1.452095,153.529922 
	C4.687553,153.122467 7.470917,153.122467 10.830020,153.122467 
	C10.830020,145.712234 10.830020,138.814194 10.830020,132.067139 
	C16.802622,132.067139 22.181541,132.067139 27.995350,132.067139 
	C27.995350,140.741928 27.995350,148.993408 27.995350,157.354919 
	C32.528019,157.354919 36.600483,157.354919 41.148361,157.354919 
	C41.148361,140.439331 41.148361,123.846130 41.148361,109.163368 
	C44.862961,106.410019 47.632172,104.831474 49.801056,102.654747 
	C54.894882,97.542519 59.545303,97.523949 64.551300,102.538979 
	C66.816032,104.807785 69.734535,106.423981 73.338036,109.052162 
	C73.338036,109.257324 73.335777,110.897682 73.338394,112.538033 
	C73.360428,126.370522 73.459259,140.203568 73.355507,154.035110 
	C73.327705,157.740662 74.750290,158.343155 78.115044,157.012970 
	C78.115044,154.978622 78.115044,152.997940 78.115044,151.017273 
	C78.115051,126.017929 78.075439,101.018379 78.207054,76.019722 
	C78.215538,74.407860 79.193428,71.737244 80.316788,71.366547 
	C88.012604,68.827049 95.867744,66.770424 104.379860,64.357437 
	C104.379860,90.343018 104.379860,115.591171 104.379860,140.904205 
	C108.673775,140.904205 112.402145,140.904205 116.635330,140.904205 
	C116.635330,133.991562 116.635330,127.428322 116.635330,119.766411 
	C123.319138,124.373718 130.271866,127.479156 134.542496,132.755463 
	C137.026520,135.824463 135.220200,142.374863 135.321198,147.359253 
	C135.358322,149.191803 135.066727,151.075974 135.405945,152.844360 
	C135.724014,154.502579 136.677322,156.038925 137.351120,157.628906 
	C137.897629,156.114487 138.895218,154.606644 138.917343,153.084595 
	C139.060226,143.253601 138.959915,133.419296 139.029236,123.586700 
	C139.037674,122.391167 139.447067,120.222221 139.901489,120.158813 
	C143.937363,119.595673 142.701370,116.580315 142.707901,114.359077 
	C142.771103,92.859833 142.745880,71.360313 142.745926,49.860878 
	C142.745926,48.105122 142.745926,46.349365 142.745926,44.518959 
	C145.259048,44.518959 147.014832,44.518959 149.486938,44.518959 
	C149.486938,48.773388 149.486938,52.799820 149.486938,56.641205 
	C156.126068,56.641205 162.036362,56.641205 168.318497,56.641205 
	C168.318497,52.490967 168.318497,48.721691 168.318497,44.730377 
	C170.740875,44.730377 172.768570,44.730377 175.177994,44.730377 
	C175.177994,74.966324 175.177994,104.741760 175.177994,134.712723 
	C176.968002,134.712723 178.372787,134.712723 180.390472,134.712723 
	C180.390472,127.759743 180.390472,121.012886 180.390472,114.214714 
	C182.916916,114.018692 184.838257,113.869621 187.141022,113.690964 
	C187.141022,105.085999 187.141022,96.818443 187.141022,88.329155 
	C189.931366,88.116943 192.328369,87.934639 194.781235,87.748093 
	C194.942490,85.108864 195.081940,82.826401 195.217560,80.606842 
	C202.621124,79.617249 203.847305,72.932175 206.228424,68.216484 
	C208.702026,63.317612 208.921677,57.280632 210.372971,50.610950 
	C211.272964,51.766396 212.974655,52.983124 212.832321,53.919544 
	C211.547424,62.372402 215.092422,69.171188 219.919144,75.498749 
	C221.628616,77.739723 223.922455,79.534943 225.949524,81.533661 
	C226.241440,81.311615 226.533371,81.089561 226.825302,80.867516 
	C226.943161,83.136871 227.061020,85.406235 227.189896,87.887787 
	C229.895905,88.024597 232.282364,88.145248 234.988678,88.282066 
	C234.988678,114.140709 234.988678,139.418198 234.988678,164.863495 
	C237.393631,164.863495 239.432816,164.863495 241.939957,164.863495 
	C241.939957,131.299240 241.939957,98.054153 241.939957,64.583298 
	C251.165146,64.583298 259.918396,64.583298 269.212433,64.583298 
	C269.212433,69.279900 269.213531,73.733795 269.212280,78.187691 
	C269.204468,105.686897 269.181091,133.186142 269.227631,160.685257 
	C269.230255,162.228683 269.806915,163.771118 270.116425,165.314011 
	C270.788177,165.208145 271.459961,165.102264 272.131714,164.996384 
	C272.131714,163.426483 272.131775,161.856598 272.131714,160.286697 
	C272.131439,153.120224 272.084930,145.953186 272.170380,138.787735 
	C272.187134,137.384979 272.577118,135.940475 273.042236,134.601089 
	C273.609283,132.968216 275.043457,131.432068 275.059174,129.843750 
	C275.214447,114.179031 275.152985,98.512161 275.152985,82.845901 
	C275.152985,81.075165 275.152985,79.304428 275.152985,77.509514 
	C283.878784,77.509514 291.917328,77.509514 300.228180,77.509514 
	C300.228180,79.723152 300.228180,81.545326 300.228180,83.367493 
	C300.228149,104.700264 300.255005,126.033112 300.197906,147.365738 
	C300.189728,150.419556 300.662598,152.317566 304.569244,150.496201 
	C304.569244,141.806717 304.569244,133.173737 304.569244,124.363045 
	C306.250397,124.094490 307.625641,123.874802 309.448975,123.583542 
	C309.448975,90.229858 309.448975,57.153896 309.448975,23.700024 
	C311.934540,23.700024 314.012543,24.078104 315.863556,23.591965 
	C317.656036,23.121201 319.873993,22.171034 320.771515,20.726913 
	C327.445862,9.987483 348.663818,7.052880 356.757568,16.791920 
	C360.900604,21.777168 364.454926,25.362413 371.728088,23.426208 
	C371.728088,66.480949 371.728088,108.709740 371.728088,151.003906 
	C373.873566,151.003906 375.442108,151.003906 377.615234,151.003906 
	C377.615234,137.843216 377.615234,124.975174 377.615234,112.123734 
	C380.293060,111.882729 382.366791,111.696091 384.914246,111.466820 
	C384.914246,91.159538 384.914246,71.251762 384.914246,50.859543 
	C388.324036,50.859543 391.218964,50.859543 394.721832,50.859543 
	C394.721832,45.978832 394.721832,41.579994 394.721832,36.514839 
	C401.550140,38.992500 404.313171,34.245819 407.694214,30.690697 
	C412.498993,25.638523 414.916962,25.562222 419.562897,30.638025 
	C423.041748,34.438816 426.148651,38.761765 432.881409,36.669418 
	C432.881409,41.812958 432.881409,46.225895 432.881409,51.093300 
	C436.341278,51.093300 439.248779,51.093300 442.705139,51.093300 
	C442.705139,83.479988 442.705139,115.390488 442.705139,147.540955 
	C445.788147,147.729843 448.332916,147.885757 451.057098,148.052658 
	C451.057098,151.547211 450.927582,154.543198 451.141296,157.514496 
	C451.200287,158.334534 452.281921,159.081009 452.894318,159.861237 
	C453.510101,159.072983 454.411102,158.367035 454.668396,157.475342 
	C454.979218,156.397964 454.746002,155.163239 454.746002,153.996613 
	C454.746246,119.330856 454.746185,84.665092 454.746124,49.999336 
	C454.746124,48.223854 454.746155,46.448372 454.746155,44.672890 
	C455.184845,44.900913 455.623566,45.128937 456.062256,45.356960 
	C457.693298,43.802555 459.324371,42.248150 461.556427,40.120979 
	C464.792145,40.120979 469.099823,40.120979 472.024048,40.120979 
	C474.744659,42.419907 476.583557,43.973785 479.077148,46.080883 
	C479.077148,46.872776 479.077148,48.691853 479.077148,50.510929 
	C479.077362,85.510017 479.056000,120.509163 479.154022,155.507980 
	C479.158081,156.960129 480.279572,158.409119 480.880493,159.859573 
	C481.492859,158.388840 482.589294,156.932678 482.634033,155.444870 
	C482.829285,148.950897 482.692871,142.447525 482.742096,135.948059 
	C482.751923,134.655060 482.722260,132.410614 483.264069,132.225647 
	C487.054199,130.931747 485.630554,127.894173 485.751129,125.489990 
	C485.926239,121.998863 485.796021,118.492424 485.796021,114.992516 
	C485.796021,95.180939 485.796021,75.369362 485.796021,56.476440 
	C488.263702,54.635517 490.105499,53.261536 492.968933,51.125378 
	C495.793427,51.125378 500.104950,51.125378 502.833435,51.125378 
	C505.737305,53.294228 507.549347,54.647598 510.191223,56.620770 
	C510.191223,90.745331 510.191223,125.998589 510.191223,161.426117 
	C512.364319,161.426117 514.061768,161.426117 516.199707,161.426117 
	C516.199707,154.647369 516.199707,148.218475 516.199707,141.560089 
	C518.350891,141.340118 520.089172,141.162384 522.181152,140.948471 
	C522.181152,120.586769 522.181152,100.507301 522.181152,79.598251 
	C532.638428,85.075676 542.389282,90.342438 552.302917,95.282471 
	C555.438599,96.845009 556.410156,98.761757 556.376099,102.204460 
	C556.196533,120.368874 556.252014,138.536285 556.379211,156.701599 
	C556.388000,157.952255 557.644287,159.194183 558.320435,160.440186 
	C559.037537,159.257721 560.318970,158.101303 560.374939,156.888382 
	C560.628174,151.399673 560.524353,145.894852 560.586670,140.396271 
	C560.591736,139.944336 560.878662,139.495605 561.019958,139.087753 
	C562.476440,138.702682 563.830261,138.344772 565.378784,137.935379 
	C565.378784,135.833237 565.378784,134.013000 565.378784,132.192780 
	C565.378723,113.526604 565.468506,94.859589 565.295227,76.195015 
	C565.264343,72.861656 566.143494,71.166565 569.361023,69.947777 
	C577.912476,66.708443 586.307251,63.056034 594.767944,59.576683 
	C597.617188,58.404980 600.477234,57.259655 603.908569,55.868687 
	C603.908569,90.508568 603.908569,124.298584 603.908569,158.350052 
	C607.796570,158.350052 611.336182,158.350052 615.347900,158.350052 
	C615.347900,154.726242 615.347900,151.464630 615.347900,148.176941 
	C621.881836,148.176941 627.934814,148.176941 634.384644,148.176941 
	C634.384644,154.811111 634.384644,161.075195 634.384644,167.968628 
	C640.981079,167.968628 647.192505,167.968628 653.441589,167.968628 
	C653.653870,171.402237 653.826965,174.201111 654.000000,177.000000 
z"/>
<path fill="#FDFDFD" opacity="1.000000" stroke="none" 
	d="
M654.500000,177.000000 
	C653.826965,174.201111 653.653870,171.402237 653.441589,167.968628 
	C647.192505,167.968628 640.981079,167.968628 634.384644,167.968628 
	C634.384644,161.075195 634.384644,154.811111 634.384644,148.176941 
	C627.934814,148.176941 621.881836,148.176941 615.347900,148.176941 
	C615.347900,151.464630 615.347900,154.726242 615.347900,158.350052 
	C611.336182,158.350052 607.796570,158.350052 603.908569,158.350052 
	C603.908569,124.298584 603.908569,90.508568 603.908569,55.868687 
	C600.477234,57.259655 597.617188,58.404980 594.767944,59.576683 
	C586.307251,63.056034 577.912476,66.708443 569.361023,69.947777 
	C566.143494,71.166565 565.264343,72.861656 565.295227,76.195015 
	C565.468506,94.859589 565.378723,113.526604 565.378784,132.192780 
	C565.378784,134.013000 565.378784,135.833237 565.378784,137.935379 
	C563.830261,138.344772 562.476440,138.702682 561.019958,139.087753 
	C560.878662,139.495605 560.591736,139.944336 560.586670,140.396271 
	C560.524353,145.894852 560.628174,151.399673 560.374939,156.888382 
	C560.318970,158.101303 559.037537,159.257721 558.320435,160.440186 
	C557.644287,159.194183 556.388000,157.952255 556.379211,156.701599 
	C556.252014,138.536285 556.196533,120.368874 556.376099,102.204460 
	C556.410156,98.761757 555.438599,96.845009 552.302917,95.282471 
	C542.389282,90.342438 532.638428,85.075676 522.181152,79.598251 
	C522.181152,100.507301 522.181152,120.586769 522.181152,140.948471 
	C520.089172,141.162384 518.350891,141.340118 516.199707,141.560089 
	C516.199707,148.218475 516.199707,154.647369 516.199707,161.426117 
	C514.061768,161.426117 512.364319,161.426117 510.191223,161.426117 
	C510.191223,125.998589 510.191223,90.745331 510.191223,56.620770 
	C507.549347,54.647598 505.737305,53.294228 502.833435,51.125378 
	C500.104950,51.125378 495.793427,51.125378 492.968933,51.125378 
	C490.105499,53.261536 488.263702,54.635517 485.796021,56.476440 
	C485.796021,75.369362 485.796021,95.180939 485.796021,114.992516 
	C485.796021,118.492424 485.926239,121.998863 485.751129,125.489990 
	C485.630554,127.894173 487.054199,130.931747 483.264069,132.225647 
	C482.722260,132.410614 482.751923,134.655060 482.742096,135.948059 
	C482.692871,142.447525 482.829285,148.950897 482.634033,155.444870 
	C482.589294,156.932678 481.492859,158.388840 480.880493,159.859573 
	C480.279572,158.409119 479.158081,156.960129 479.154022,155.507980 
	C479.056000,120.509163 479.077362,85.510017 479.077148,50.510929 
	C479.077148,48.691853 479.077148,46.872776 479.077148,46.080883 
	C476.583557,43.973785 474.744659,42.419907 472.024048,40.120979 
	C469.099823,40.120979 464.792145,40.120979 461.556427,40.120979 
	C459.324371,42.248150 457.693298,43.802555 456.062256,45.356960 
	C455.623566,45.128937 455.184845,44.900913 454.746155,44.672890 
	C454.746155,46.448372 454.746124,48.223854 454.746124,49.999336 
	C454.746185,84.665092 454.746246,119.330856 454.746002,153.996613 
	C454.746002,155.163239 454.979218,156.397964 454.668396,157.475342 
	C454.411102,158.367035 453.510101,159.072983 452.894318,159.861237 
	C452.281921,159.081009 451.200287,158.334534 451.141296,157.514496 
	C450.927582,154.543198 451.057098,151.547211 451.057098,148.052658 
	C448.332916,147.885757 445.788147,147.729843 442.705139,147.540955 
	C442.705139,115.390488 442.705139,83.479988 442.705139,51.093300 
	C439.248779,51.093300 436.341278,51.093300 432.881409,51.093300 
	C432.881409,46.225895 432.881409,41.812958 432.881409,36.669418 
	C426.148651,38.761765 423.041748,34.438816 419.562897,30.638025 
	C414.916962,25.562222 412.498993,25.638523 407.694214,30.690697 
	C404.313171,34.245819 401.550140,38.992500 394.721832,36.514839 
	C394.721832,41.579994 394.721832,45.978832 394.721832,50.859543 
	C391.218964,50.859543 388.324036,50.859543 384.914246,50.859543 
	C384.914246,71.251762 384.914246,91.159538 384.914246,111.466820 
	C382.366791,111.696091 380.293060,111.882729 377.615234,112.123734 
	C377.615234,124.975174 377.615234,137.843216 377.615234,151.003906 
	C375.442108,151.003906 373.873566,151.003906 371.728088,151.003906 
	C371.728088,108.709740 371.728088,66.480949 371.728088,23.426208 
	C364.454926,25.362413 360.900604,21.777168 356.757568,16.791920 
	C348.663818,7.052880 327.445862,9.987483 320.771515,20.726913 
	C319.873993,22.171034 317.656036,23.121201 315.863556,23.591965 
	C314.012543,24.078104 311.934540,23.700024 309.448975,23.700024 
	C309.448975,57.153896 309.448975,90.229858 309.448975,123.583542 
	C307.625641,123.874802 306.250397,124.094490 304.569244,124.363045 
	C304.569244,133.173737 304.569244,141.806717 304.569244,150.496201 
	C300.662598,152.317566 300.189728,150.419556 300.197906,147.365738 
	C300.255005,126.033112 300.228149,104.700264 300.228180,83.367493 
	C300.228180,81.545326 300.228180,79.723152 300.228180,77.509514 
	C291.917328,77.509514 283.878784,77.509514 275.152985,77.509514 
	C275.152985,79.304428 275.152985,81.075165 275.152985,82.845901 
	C275.152985,98.512161 275.214447,114.179031 275.059174,129.843750 
	C275.043457,131.432068 273.609283,132.968216 273.042236,134.601089 
	C272.577118,135.940475 272.187134,137.384979 272.170380,138.787735 
	C272.084930,145.953186 272.131439,153.120224 272.131714,160.286697 
	C272.131775,161.856598 272.131714,163.426483 272.131714,164.996384 
	C271.459961,165.102264 270.788177,165.208145 270.116425,165.314011 
	C269.806915,163.771118 269.230255,162.228683 269.227631,160.685257 
	C269.181091,133.186142 269.204468,105.686897 269.212280,78.187691 
	C269.213531,73.733795 269.212433,69.279900 269.212433,64.583298 
	C259.918396,64.583298 251.165146,64.583298 241.939957,64.583298 
	C241.939957,98.054153 241.939957,131.299240 241.939957,164.863495 
	C239.432816,164.863495 237.393631,164.863495 234.988678,164.863495 
	C234.988678,139.418198 234.988678,114.140709 234.988678,88.282066 
	C232.282364,88.145248 229.895905,88.024597 227.189896,87.887787 
	C227.061020,85.406235 226.943161,83.136871 226.825302,80.867516 
	C226.533371,81.089561 226.241440,81.311615 225.949524,81.533661 
	C223.922455,79.534943 221.628616,77.739723 219.919144,75.498749 
	C215.092422,69.171188 211.547424,62.372402 212.832321,53.919544 
	C212.974655,52.983124 211.272964,51.766396 210.372971,50.610950 
	C208.921677,57.280632 208.702026,63.317612 206.228424,68.216484 
	C203.847305,72.932175 202.621124,79.617249 195.217560,80.606842 
	C195.081940,82.826401 194.942490,85.108864 194.781235,87.748093 
	C192.328369,87.934639 189.931366,88.116943 187.141022,88.329155 
	C187.141022,96.818443 187.141022,105.085999 187.141022,113.690964 
	C184.838257,113.869621 182.916916,114.018692 180.390472,114.214714 
	C180.390472,121.012886 180.390472,127.759743 180.390472,134.712723 
	C178.372787,134.712723 176.968002,134.712723 175.177994,134.712723 
	C175.177994,104.741760 175.177994,74.966324 175.177994,44.730377 
	C172.768570,44.730377 170.740875,44.730377 168.318497,44.730377 
	C168.318497,48.721691 168.318497,52.490967 168.318497,56.641205 
	C162.036362,56.641205 156.126068,56.641205 149.486938,56.641205 
	C149.486938,52.799820 149.486938,48.773388 149.486938,44.518959 
	C147.014832,44.518959 145.259048,44.518959 142.745926,44.518959 
	C142.745926,46.349365 142.745926,48.105122 142.745926,49.860878 
	C142.745880,71.360313 142.771103,92.859833 142.707901,114.359077 
	C142.701370,116.580315 143.937363,119.595673 139.901489,120.158813 
	C139.447067,120.222221 139.037674,122.391167 139.029236,123.586700 
	C138.959915,133.419296 139.060226,143.253601 138.917343,153.084595 
	C138.895218,154.606644 137.897629,156.114487 137.351120,157.628906 
	C136.677322,156.038925 135.724014,154.502579 135.405945,152.844360 
	C135.066727,151.075974 135.358322,149.191803 135.321198,147.359253 
	C135.220200,142.374863 137.026520,135.824463 134.542496,132.755463 
	C130.271866,127.479156 123.319138,124.373718 116.635330,119.766411 
	C116.635330,127.428322 116.635330,133.991562 116.635330,140.904205 
	C112.402145,140.904205 108.673775,140.904205 104.379860,140.904205 
	C104.379860,115.591171 104.379860,90.343018 104.379860,64.357437 
	C95.867744,66.770424 88.012604,68.827049 80.316788,71.366547 
	C79.193428,71.737244 78.215538,74.407860 78.207054,76.019722 
	C78.075439,101.018379 78.115051,126.017929 78.115044,151.017273 
	C78.115044,152.997940 78.115044,154.978622 78.115044,157.012970 
	C74.750290,158.343155 73.327705,157.740662 73.355507,154.035110 
	C73.459259,140.203568 73.360428,126.370522 73.338394,112.538033 
	C73.335777,110.897682 73.338036,109.257324 73.338036,109.052162 
	C69.734535,106.423981 66.816032,104.807785 64.551300,102.538979 
	C59.545303,97.523949 54.894882,97.542519 49.801056,102.654747 
	C47.632172,104.831474 44.862961,106.410019 41.148361,109.163368 
	C41.148361,123.846130 41.148361,140.439331 41.148361,157.354919 
	C36.600483,157.354919 32.528019,157.354919 27.995350,157.354919 
	C27.995350,148.993408 27.995350,140.741928 27.995350,132.067139 
	C22.181541,132.067139 16.802622,132.067139 10.830020,132.067139 
	C10.830020,138.814194 10.830020,145.712234 10.830020,153.122467 
	C7.470917,153.122467 4.687553,153.122467 1.452095,153.061234 
	C1.000000,102.359116 1.000000,51.718231 1.000000,1.044808 
	C219.000000,1.044808 437.000000,1.044808 655.000000,1.044808 
	C655.000000,59.726410 655.000000,118.363205 654.500000,177.000000 
z"/>
</svg>