<svg xmlns="http://www.w3.org/2000/svg" width="686" height="431"><path fill="#00160E" d="M0 0h686v431H0z"/><path fill="#fff" d="m.698.615 684.65.05-.035 429.69-4.172.005L.72 430.326z"/><path fill="#320E2E" d="M387.358 58.291c-.593-.78-.876-1.1-.823-2.087 1.037-.662 2.182-1.031 3.344-1.449-.45 1.298-1.174 2.851-2.52 3.536"/><path fill="#320E2E" d="m540.99 87.023 1.312-1.127c1.246.049 1.818-.056 2.845.668l.639 1.52c-1.603-.198-3.184-.79-4.797-1.061"/><path fill="#334032" d="M202.721 107.072c3.166-.05 5.81-.226 8.91-.855-.738.705-1.423 1.384-2.308 1.929l-.028.746c-1.963-.077-5.63.114-7.201-1.017z"/><path fill="#334032" d="m517.127 112.38 1.085.932c.259.632.652 1.102.37 1.753-.392.895-1.205 1.627-1.889 2.336-1.536-.192-2.47-1.114-3.67-1.955.99-1.312 2.697-2.181 4.104-3.066"/><path fill="#020200" d="M171.08 260.34c.451-1.203.8-2.35 1.76-3.288 1.362-.553 4.835-.675 6.22-.178.427.154 1.059.922 1.4 1.252-.073 1.06-1.793 2.994-1.622 3.357-.507.6-1.082 1.2-1.45 1.885l-.389.032c-1.112.972-1.455 1.796-1.963 3.097-.07-.565-.322-1.052-.52-1.584a5.4 5.4 0 0 0-.354-.808l-.19-.337c-.312-.635-1.014-1.045-1.214-1.616-.22-.628-1.172-1.33-1.678-1.812"/><path fill="#020200" d="M298.802 38.524c.645-.438.99-.666 1.797-.677 1.86.017 3.556-.04 5.317.604 1.557.569 3.66.528 4.513 2.123-.25.683-.715 1.086-1.235 1.593l-.013.525c.217 1.257-.402 2.078-1.187 3.092l-.586.706-.047-.008c-1.515 1.613-2.397 3.702-3.681 5.494l-.888-.113-2.208-1.735-.021-.196c-.402-.591-.682-.947-1.354-1.277-1.814-.89-1.264-2.143-1.775-3.66-.882-.562-1.417-1.057-2.003-1.895.073-2.581 2.285-2.49 3.297-4.385z"/><path fill="#020200" d="M212.235 132.808c-.989 1.228-3.769 3.002-5.35 3.467-1.257.37-2.603.048-3.731-.533-.853-.44-3.18-3.163-3.388-4.074-.11-.484.212-1.224.155-1.737-.046-.416-.904-.892-1.14-1.262-.232-.366-.354-.854-.476-1.264.125-1.535 1.272-2.815 2.103-4.104l.655-.923c1.32-1.555 4.032-3.39 6.11-3.56 1.608.69 3.07 1.668 4.676 2.33.987.406 2.312.412 2.92 1.363.771 1.209.947 3.702.508 5.02l-.83 2.41c-.543 1.126-1.35 1.952-2.212 2.867"/><path fill="#391030" d="M205.235 132.773c.498.066 1.425 1.152 1.819 1.528l-.885.19c-.937-.15-1.2-.046-1.802-.77z"/><path fill="#020200" d="M486.466 133.296c-2.058.216-3.595-.214-5.462-1.03-.428-.188-.571-.396-.732-.803-.893-2.262-3.02-3.905-3.26-6.268.567-1.697 1.674-4.266 3.492-5.078.666-.296 1.277-.256 1.827-.763-.322-.304-.393-.415-.567-.79a21 21 0 0 1 2.688-2.841c.684.352 1.621.101 2.372 0 3.39 1.685 5.368 2.192 7.396 5.502.643 1.056.527 1.404.178 2.55-.183.61-.437 1.11-.232 1.746.179.543.206 1.003.223 1.569-.674 1.521-1.496 2.643-2.608 3.911z"/><path fill="#391030" d="m484.845 123.3.853-.251.407.567-.295 1.263-.54.275c-.68-.756-.505-.899-.425-1.853"/><path d="m488.44 121.406 1.104-.312c2.67 2.172 1.197 4.89 2.572 7.469l.148.263-.277.184-.161-.636c-1.184-.54-1.572-.266-2.733-.495.42-.491.893-1.014 1.196-1.579 1.492-2.753-1.183-2.883-1.848-4.894"/><path fill="#020200" d="m134.703 148.663 2.344-.693c1.041-.283 2.05-.66 3.134-.778 1.015-.11 3.6.275 4.364-.048.847-.358 2.046-1.774 3.005-2.326 1.147.173 1.316.322 2.206 1.045-.314.696-.577 1.244-1.368 1.522l-2.256.544.861.58c.913 1.124 1.84 2.5 2.451 3.789.114 2.951-.342 5.531-2.585 7.812-1.26 1.282-2.848 2.99-4.537 3.717l-1.973-.011c-1.099-1.26-.512-2.59-1.35-3.888-.409.094-.825.171-1.248.167-1.84-.02-4.873-1.441-6.102-2.688-.878-.891-1.414-1.92-1.285-3.178.245-2.4 2.467-4.185 4.339-5.566"/><path fill="#020200" d="m549.671 174.027 1.005-.556 1.51.453c.393-.11.643-.235.956-.48l.321-.255c.795.594 1.42.811 2.403 1.012l.16-.314c.336-.735.358-2.906 0-3.625l-.16-.227.335-.32.674.227c.514-.95.3-2.181.608-3.21.34-1.15 1.183-1.719 2.237-2.272 1.55.05 3.113-.172 4.65-.33 2.313 1.506 3.17 3.071 4.35 5.414l.929 2.089c.455 1.278 2.474 2.628 2.72 3.609.093.381-.018 1.134-.023 1.546l-.732.413c-1.452-.59-1.47-.641-3.02-.13-.656.859-.214.962-.531 1.644-.281.605-1.67 1.407-2.25 1.775-.72.143-1.109.266-1.738.596-.661.345-1.447.491-2.18.632-.714.138-1.652.724-2.26 1.11-.79.498-1.72.771-2.514 1.264-1.376.848-2.483 1.82-4.104 2.236-2.577-1.473-2.975-2.921-3.707-5.554-.313-1.93.245-4.762.361-6.747"/><path fill="#463F33" d="M133.972 185.359c.572.355 1.17.842 1.867.903-2.905 7.248-5.586 14.432-7.096 22.065-1.042 5.266-1.606 10.992.808 16.025.37.774.793 1.61 1.323 2.3 1.45 1.922 3.029 4.13 5.08 5.52l.085.171c1.933 1.032 3.44 2.695 5.366 3.678 1.934.574 4.043 2.033 6.048 1.629-.464.915-.872 1.897-1.574 2.673l-.78.014-.302-.342c-1.518.046-1.95.068-3.276.873-1.25-.924-2.565-1.622-3.962-2.33-1.792-.73-3.395-2.506-4.93-3.663-6.3-4.75-13.126-7.176-21.175-7.432 1.134-1.465 1.84-3.214 2.616-4.865l7.696.664c-.082-1.701-.423-3.45-.325-5.152.205-3.545 1.514-7.411 2.54-10.828 1.599-5.33 3.762-10.2 6.075-15.279.905-1.989 1.91-5.567 3.916-6.624"/><path fill="#fff" d="M136.04 232.343c1.932 1.032 3.44 2.695 5.365 3.678 1.934.574 4.043 2.033 6.048 1.629-.464.915-.872 1.897-1.574 2.673l-.78.014-.302-.342.409-.228c-.716-.21-1.438-.44-2.1-.777-1.831-.936-6.525-4.87-7.067-6.647"/><path fill="#020200" d="m571.56 179.35.853-1.74h.643l.26.28c.785.84 1.37 1.334 2.482 1.782.474.317.75.553 1.063 1.016.33-.392.626-.497 1.112-.681l.827 1.3c-.005.6.187 1.949-.01 2.46-.08.218-.66.595-.687.79-.08.61.594 1.501 1.027 1.894.424.383.898.637 1.443.82 1.05.35 4.35 4.067 5.113 4.975l-.214.4 3.774 4.382c-.13.707-.08.93-.786 1.334-.813.466-2.019.511-2.916.264l-2.041-.707c-1.358.942-2.984 4.865-3.904 5.127-.947-.33-2.059-.814-3.064-.917-4.278-.44-11.554.676-13.97-4.04-.272-.535-.357-1.29-.455-1.875l-.148-2.01c-.714.133-1.3 1.225-1.742 1.791-2.335-.245-3.76-1.673-5.569-2.97-1.786-1.003-2.086-1.532-2.778-3.32.688-1.095 1.14-1.809 1.13-3.12l.014-.257c1.62-.416 2.728-1.388 4.104-2.236.795-.493 1.724-.766 2.514-1.264.608-.386 1.546-.972 2.26-1.11.733-.14 1.519-.287 2.18-.632.63-.33 1.018-.453 1.737-.596.683.085 1.34.159 1.992.385.804.278 1.188.417 2.054.292.29-.743.657-1.193 1.367-1.622z"/><path fill="#391030" d="M571.127 182.843c1.326.03 2.791-.276 3.742.63l.121-.004c.219.342.688.882.804 1.245.125.412-.232.696.004 1.234-.464.785-.884 1.197-1.674 1.7l-3.18-.02-.268-.386.487-.79c-.416-.536-.376-1.1-.407-1.737-.036-.878-.152-1.118.37-1.872"/><path fill="#273100" d="M571.127 182.843c1.326.03 2.791-.276 3.742.63-.343.838-.647 1.082-1.451 1.55l-.04-.01c-.737.68-1.161 1.387-2.215 1.44-.416-.537-.376-1.101-.407-1.738-.036-.878-.152-1.118.37-1.872"/><path fill="#020200" d="M570.756 184.715c1.068-.318 1.327-.33 2.425-.128l.197.426c-.737.68-1.161 1.387-2.215 1.44-.416-.537-.376-1.101-.407-1.738"/><path fill="#020200" d="m571.56 179.35.853-1.74h.643l.26.28c.785.84 1.37 1.334 2.482 1.782.474.317.75.553 1.063 1.016-.486 1.175-.88 1.895-1.871 2.781l-.12.004c-.952-.906-2.417-.6-3.743-.63l-.491-.8.531-.34c-.13-.258-.25-.491-.433-.72l-.13-.146c.55-.565.813-.718.956-1.487"/><path d="M575.798 179.672c.474.317.75.553 1.063 1.016-.486 1.175-.88 1.895-1.871 2.781l-.12.004c-.952-.906-2.417-.6-3.743-.63l-.491-.8.531-.34c.715.05 1.434.003 2.117-.216 1.233-.395 2-.71 2.514-1.815"/><path fill="#D03B73" d="M576.861 180.688c.33-.392.626-.497 1.112-.681l.827 1.3c-.005.6.187 1.949-.01 2.46-.08.218-.66.595-.687.79-.08.61.594 1.501 1.027 1.894.424.383.898.637 1.443.82 1.05.35 4.35 4.067 5.113 4.975l-.214.4c-.714-.665-1.21-1.17-2.255-1.302l-.215-.02c-.746-.974-2.005-1.812-2.612-2.788-.728-1.16-2.823-2.25-3.989-3.077l-.603.489c-.236-.538.121-.822-.004-1.234-.116-.363-.585-.903-.804-1.245.992-.886 1.385-1.606 1.871-2.781"/><path fill="#020200" d="m111.685 198.642-.441.279c-1.366.596-2.317 2.038-3.387 3.087-.994-.195-2.987-.32-3.817-.746-.809-.416-1.988-1.92-2.682-2.59-.511.114-2.245.567-2.712.313-1.15-.626-.636-1.622-2.403-2.058-.65-.75-1.15-1.402-1.281-2.385-.12-.897-.285-2.006.334-2.699l-1.004-.21c-1.073-.724-1.768-2.511-2.35-3.629-.69-1.325-1.282-3.313-.668-4.734.582-1.348 2.29-2.833 3.735-3.35.41-.145 1.38-.447 1.627-.828.074-.114.086-.93.106-1.093.116-.96.358-1.448 1.015-2.19.963-.396 1.045-.436 2.061-.215.758-.328.186-1.57 1.133-2.405.796-.703 2.245-.608 3.259-.549 1.184.07 1.87.233 2.668 1.103l.142.162 2.685-1.367c2.119-.863 5.013 1.095 7.029 1.744 1.844.595 2.52 2.308 4.02 3.325.83.563 1.871.638 2.694 1.165 1.02.653 1.788 2.09 1.982 3.224.105.608.44 3.178.232 3.667-.24.565-1.543 1.653-1.98 2.209-.01 1.256.662 2.454 1.154 3.604-.72 1.54-1.398 3.362-2.575 4.64l-2.68.298-.118.307-.178.465c-.363 1.135-.798 1.828-1.694 2.661-.989.92-1.576.852-2.867.816-.982-.595-1.22-1.362-1.583-2.35l-.146-.4c-.477.223-.896.406-1.31.729"/><path d="M111.685 198.642c-.239-1.045.23-2.146-.111-3.264-.469-1.534-1.479-4.8-2.75-5.847-.557-.458-.855-.794-1.206-1.409l.407-.589c2.254 2.13 2.884-.482 5.19.1l.18.367c-.632.201-1.418.373-1.936.782-.828.657 1.708 7.479 1.536 9.131-.477.223-.896.406-1.31.729"/><path fill="#020200" d="M555.326 238.436c1.29-.354 4.97-1.157 6.07-.584 3.125 1.625 4.697 4.082 6.962 6.507l.598.638c1.13 1.435 2.278 6.42 1.831 8.235-.223.913-.884 1.183-1.639 1.66.938 1.364 1.255 1.933 1.282 3.55-.978 1.192-6.217 7.43-7.168 7.68-1.197.316-2.787-.471-3.832-.974l-.38-.185-1.116.76c-2.233 1.33-5.824 2.598-8.428 2.012-1.295-1.052-1.952-2.256-2.55-3.745l-.071-.18c-.353.767-.684 1.301-1.313 1.894l-.612-.156c-.978-1.266-2.104-2.337-1.943-3.99.2-1.985-2.403-1.81-3.542-3.432-.781-1.99.224-4.924.715-6.946-.286-.451-.652-.968-.822-1.47-.808-2.427 2.072-6.53 3.287-8.676l.474-.329c1.58-.986 3.309-.537 5.033-.222.545-.538 1.099-1.117 1.742-1.55 1.366-.926 2.854-1.365 4.537-1.127z"/><path fill="#D03B73" d="M555.326 238.436c1.29-.354 4.97-1.157 6.07-.584 3.125 1.625 4.697 4.082 6.962 6.507-1.099-.467-2.023-.963-2.698-1.923l-.808-1.045c-.826-.173-1.313-.165-2.122.106-.567.19-.884.314-1.505.235l-.089-.287c-1.032-3.096-3.225-1.742-5.81-3.01"/><path fill="#020200" d="M258.9 70.57c2.439.149 3.043 1.874 5.007 2.494 1.106.349 2.364.206 3.56.591 1.298 1.311 1.819 3.22 2.196 4.949l.044.237c1.263 1.162 2.094 2.067 2.375 3.79.275 1.692-.16 4.569-1.306 5.92-.3.352-.246.403-.295.84.571-.59.661-.793 1.508-.979.93 1.395.328 3.307.092 4.892-.08.528-.121 1.069-.298 1.579-.752 2.173-4.295 4.446-6.326 5.498l-1.34-.591c-1.26 1.378-2.605 3.215-4.355 4.025-1.134-.16-1.933-.78-2.857-1.377l-1.663 1.286-.264.024c-1.143-.026-3.794-1.298-4.594-2.05-.505-1.028-.38-1.928-.317-3.026-.736.76-.764.716-1.86.81-1.51-1.018-1.557-2.712-2.665-3.576-1.078-.841-3.03-.244-4.135-1.5-1.43-1.625-2.184-3.234-1.945-5.364.158-1.408 1.848-2.782 2.95-3.607l.34-.252a4.2 4.2 0 0 1-.602-1.318c-.396-1.475-.243-4.2.73-5.47.567-.739 1.722-1.183 2.48-1.747.558-.416 1.098-1.115 1.674-1.46.158-.094.789-.12 1.005-.154.228-1.155.366-1.52 1.34-2.207a5.6 5.6 0 0 1 1.172.09c.909.186 1.624.473 2.114 1.207 1.063-1.472 4.463-2.86 6.235-3.554"/><path d="m256.822 79.096.221.072c.1.678-.091 1.366-.054 2.057.056 1.03.338 2.062.366 3.08.03 1.096-.207 1.316-.965 2.053l-.652-.06.295-1.301c.397-1.73.16-3.516.048-5.27z"/><path fill="#020200" d="M137.559 238.538c1.397.708 2.711 1.406 3.962 2.33 1.327-.805 1.758-.827 3.276-.873l.302.342.78-.014c1.588.09 2.814.756 3.83 1.892.393.438.648.889.88 1.414-.124.726-.331 1.464-.095 2.183.677.12 1.166.302 1.695.735 1.118.914 1.185 1.856 1.225 3.16l.009.367 1.335 2.053c.049 1.341.196 3.656-.854 4.732l-.324.263c-.62.536-2.34 1.865-2.669 2.51-.579 1.137-.418 4.067-.493 5.423-1.72 1.834-3.38 3.555-5.422 5.084-1.023-.113-1.872-.047-2.705-.646-.344-.939-.622-1.585-1.387-2.283-1.713.208-2.027 2.596-3.461 3.3-.79.39-2.045.561-2.875.236-3.365-1.322-7.729-.932-10.21-4.012-.723-.898-.874-1.59-.737-2.688.143-1.145 1.078-1.954 2.011-2.587l.27-.175-1.799-.126c-.985-.11-1.851-.161-2.42-1.034-.89-1.361-1.53-6.075-.926-7.419.365-.811 1.152-1.478 1.597-2.257.288-.505.34-1.113.554-1.649.258-.651 1.89-2.643 2.535-2.846 1.219-.381 2.037.226 3.43-.397 1.007-.45 1.585-.713 2.714-.529l1.648.23c-1.155-.876-2.533-.138-3.772-.994.322-.516.79-.637 1.34-.915.988-1.688 1.96-3.177 3.924-3.943z"/><path d="m137.505 246.443.726-.023 1.811 2.341c.869.958 2.075 2.168 2.198 3.465l-1.389-.904v1.102l-1.005-.13-.546.938c.112.962.26 1.136.881 1.92l-.261.78c-.448-1.259-1.718-1.932-2.803-2.705.876-.846 1.677-1.602 2.75-2.228l.24-.135c-.11-1.383-1.793-2.964-2.706-3.982z"/><path fill="#020200" d="M343.546 139.018c.277.929.9 3.563.5 4.446-.282.622-1.06 1.311-1.44 1.936-.629 1.031-1.059 2.192-1.51 3.3l-4.46-1.312-.271.226c1.44.773 3.382.92 4.458 2.12-.091 1.155-.555 1.982-1.228 2.926-1.301 1.826-2.17 2.281-4.421 1.403-.102-.04-.923-.406-.98-.394-1.276.273-2.357 2.012-4.01 2.28l-4.762.782c-1.187-.47-2.604-2.267-3.526-3.179l.486-4.537-1.474 4.318c-.318-.746-1.241-3.69-1.744-4.095l-.655.08c-.726.092-2.882.63-3.452.472-.838-.231-2.545-1.84-3.376-2.405l-.007-1.035c-.77-.601-1.315-.968-1.597-1.894.592-2.195.442-4.519.437-6.769.863-.415 2.68-1.652 3.595-1.612.361.016.57.028.922-.026.216-.846.141-1.53.027-2.388-.107-.809-.265-1.591-.064-2.4.305-1.228 1.74-3.325 2.983-3.914.634-.3 1.672-.145 2.325-.428 1.468-.635 2.403-2.71 3.886-3.446 1.676-.833 3.976.782 5.581 1.16l1.002-1.017c.13.479.294.835.553 1.263.922.27 1.562.155 2.473-.058.97-.228 2.746 1.303 3.766 1.612.864.262 1.25.481 1.904 1.061 1.236 1.095 4.665 4 4.501 5.753-.016.177-.46.745-.575.932.242 1.587.348 3.243.153 4.839"/><path d="M318.706 138.59c-.746-1.514-1.272-3.51-2.217-4.87.5-.626.766-.564 1.557-.737l.788.421-.21.33c-.257.411-.375.791-.505 1.25.42 1.014.768 2.195 1.525 3.03z"/><path fill="#391030" d="m319.644 138.014 1.917 2.812c.234.517.15.664-.062 1.142l-.436-.038c-.741-1.355-1.731-1.746-3.185-2.224-.857-.281-1.236-.378-1.78-1.092l.273-.47c.482.142.946.279 1.4.492.426.199.492.076.935-.046z"/><path fill="#D03B73" d="M343.393 134.18c.242 1.586.348 3.242.153 4.838l-.501-.582c-1.866-1.805-3.792-2.745-6.407-2.904 2.345.16 4.576.253 6.49-1.154z"/><path fill="#020200" d="M500.16 132.144c1.281-.153 2.71-.239 3.957-.565 1.576-.414 3.939-1.727 5.524-.571l1.412 1.134.214-.092c1.818-.713 4.127-.804 5.913-.033 1.724.743 2.997 2.223 3.631 3.885l.362-.038c1.353-.13 2.336-.027 3.425.834.876.69 1.188 1.133 1.296 2.232l.035 3.454c.027.968-.285 1.563-.772 2.388.906 2.113 3.22 3.682 1.943 6.29-.438.893-1.037 1.482-1.84 2.084-.166.124-1.032.668-1.095.782-.018.043.076.503.107.59.18.555.675 1.07 1.046 1.525l.38.452c-1.55.266-3.132.196-4.704.188l-3.318 5.26c-2.09.415-3.09.103-5.016-.72-.897.263-1.362.662-2.032 1.264-1.603-.59-3.05-1.625-4.48-2.52-.522-.128-.906-.38-1.361-.643l-.425.288c-1.179.122-3.372-1.014-4.734-1.288-.978-1.03-.889-1.284-.933-2.608l-.295-.673c-.585.203-1.206.234-1.818.3-1.112-.692-3.537-3.743-3.903-4.98-.3-.992-.273-2.228-.72-3.152-.129-.27-.138-.16-.25-.545-.553-1.932 2.797-5.82 3.864-7.534l-.514-.833.68-1.468.084-.218c.648-1.463 2.774-3.827 4.337-4.47"/><path d="M498.4 155.043c.96-1.156 1.916-2.198 3.256-2.98.612-.357 2.523-.956 2.89-1.371.562-.644.147-3.287.41-4.184.094-.31.599-.639.684-.947.111-.392.04-1.32-.018-1.74-.107-.809-.88-1.543-1.148-2.366-.219-.653-.478-1.218-.652-1.895l-.447-1.314c-.312-.876-.66-1.442-1.246-2.17l-.236-.307-1.255-1.417c.174-.397.276-.663.634-.944.585.65.884 1.349 1.393 2.022.715.937 1.193 2.103 1.595 3.184.54 1.457.924 3.247 2.005 4.421l.054.415c.098.69.29 1.429.92 1.838.401.26.933.355 1.402.468.817-.258 1.371-.352 1.79-1.142.568-1.065-.124-1.504 1.22-2.279l.451.208-.45.413.053.286c.053.36-.045 1.091.067 1.394.183.498.915 1.27 1.219 1.787l1.01-.07c.057.813-.26.926-.34 1.58-.01.1 1.652 1.569 1.844 1.735l-.504.392-.224-.186c-.446-.359-.826-.7-1.384-.884-.523-.172-.826-.418-1.237-.748l-.268.17c-.585.36-1.018.704-1.742.708l-.335-.402.138-.175c.42-.524.68-.943.907-1.561l-.187-.012-3.203-.46-.321.314c.491.816.763 1.098.746 2.052-.688.59-1.095.858-1.93 1.18l-.71.337c-.022 1.355.107 2.036-.63 3.217-.29-.561-.321-.968-.34-1.573-1.267.126-4.21 2.88-5.586 3.68z"/><path fill="#020200" d="M358.715 120.738c-1.32-.419-2.555-1.194-3.597-2.058-1.69-1.401-1.956-2.151-2.08-4.22-.728-.314-1.416-.653-1.95-1.228l-.265-.303a5.7 5.7 0 0 1-.588-.758c-.956-1.535-.998-5.253-.471-6.952.262-.844 1.363-1.535 2.136-1.936l1.054-.6-1.03-.538c.456-2.1 1.323-6.064 2.86-7.616 1.111-1.123 2.614-1.418 4.168-1.412.86.003 3.44-2.534 4.638-2.952.88-.307 2.558-.319 3.36.136 1.055.6 1.078 1.929 1.34 2.978l1.34-1.41c.626-.21.99-.16 1.62-.045.516.095.82-.369 1.29-.18.792.317 2.993 2.273 3.255 3.01l.118.385 5.161 1.999c.509.181 1.03.352 1.452.687.5.396 1.99 1.66 2.206 2.198.16.398-.175 2.012-.183 2.538-.022 1.449.238 2.963.41 4.402l-4.024 1.88c.405.252.879.522 1.21.858.882.894.699 1.845.71 2.964-2.34 3.153-4.35 5.923-8.404 7.197-1.198.425-2.955.828-3.966 1.526l-.855 1.2c-2.164.025-4.164.753-6.191-.125z"/><path fill="#D03B73" d="M358.715 120.738c1.571-.758 2.572-1.396 3.726-2.647l.34-.348.2-.21-.064.377c-.281 1.68-.165 2.848.522 4.453z"/><path d="m364.907 107.513.36-.11.51.426c.062.58.084 1.323.341 1.859.309.641.766.674 1.408.919.08.947-1.13 1.322-1.727 2.034-.743.884-1.141 2.358-1.864 3.394-.238-1.328 1.008-2.774 1.1-4.14.081-1.2.068-1.72-.765-2.627l-.823.425c-.627-.51-.606-.456-.675-1.233.843-.11 1.238-.31 1.92-.792z"/><path fill="#020200" d="M178.838 261.483c2.113-2 3.787-3.19 6.807-3.753a5.6 5.6 0 0 1 1.598-.046c.921 1.027.602 2.963 1.042 4.243.29.842 1.135 1.6 1.728 2.272 2.627 2.984 2.274 6.05 2.24 9.715-.786.76-1.416.993-2.494 1.263.195.461.208.414.545.733.843.798 1.376 2.214 1.318 3.332-.045.835-.434 1.162-1.081 1.699-.596.495-1.407.837-2.111 1.177-.795 1.546-1.658 4.006-3.196 4.974-.927-.072-1.102-.24-1.843-.728-.562 1.08.167 2.397-1.56 2.904-2.007.589-4.715.265-6.814.21-.366-.01-1.525-.17-1.809-.08-.588.19-1.385 1.629-1.941 1.744-.389.08-4.865-1.65-5.533-1.994-1.758-.906-2.21-3.28-3.974-4.054l-2.988.023c-.68-.626-.764-1.205-1.014-2.06-.512-1.752-.224-2.35.695-3.88-.994-.084-1.134-.178-1.936-.753-.981-3.24-.4-7.596 1.368-10.54.474-.788 2.724-4.132 3.734-3.957.936.163.83.812 1.965.514l-.825-1.263c.674-1.893 2.529-3.313 4.062-4.59l4.259 1.752c.506.482 1.457 1.184 1.678 1.812.2.57.902.981 1.214 1.616l.19.337c.158.285.243.51.355.808.197.532.449 1.019.519 1.584.508-1.301.85-2.125 1.963-3.097l.39-.032c.367-.685.942-1.284 1.449-1.885"/><path fill="#391030" d="M158.453 279.177c.909-.247 1.897-.365 2.768-.686.417-.155.629-.174 1.068-.154l.332.313c-.652.329-1.257.486-1.949.693-.343.103-.573.348-.832.57-.009 1.502.062 2.931.276 4.42l1.644.76-2.988.024c-.68-.626-.764-1.205-1.014-2.06-.512-1.752-.224-2.35.695-3.88"/><path d="M175.036 266.497c.508-1.301.85-2.125 1.963-3.097-.16.834-.292 1.525-.672 2.304-.555 1.136-.397 2.855-.423 4.105l.565.631c-.151.28-.553.822-.6 1.106-.086.517.489 1.604.205 2.107-.212.377-1.121 1.04-1.472 1.366.392.734.533.963 1.42 1.233l1.111.187-.106.493c-1.004.234-1.678-.145-2.547-.652-1.083-.632-2.114-1.246-3.066-2.05l-2.091.247-.551-.721.216-.404.243.133c.708.297 1.669.258 2.437.302 1.35-.755 2.216-2.032 3.153-3.189l-.139-.604-1.34.232-.446-.575.446-.382 1.005.151c.56-.948.587-1.857.689-2.923"/><path fill="#020200" d="M569.273 169.385c-.536-1.103-1.054-2.328-1.8-3.316-.674-.893-1.683-1.69-2.215-2.658-.38-.691-.219-1.78-.16-2.536 1.388-1.403 2.93-1.435 4.89-1.531l.255-.216c2.728-2.296 5.663-2.26 9.128-2.288.943.438 1.97.884 2.787 1.512.344.263 1.327 1.362 1.648 1.458 1.032.308 2.796-.106 3.962.113 1.576.295 4.176 4.204 5.44 5.372l.035.338c3.394.011 4.44.814 6.811 3.043 1.657 1.558 2.367 3.077 2.367 5.298-.004 2.77-.786 6.883-2.89 8.985-.446.446-.835.577-1.46.693.277.158.54.305.83.433.992.435 1.676 1.156 2.024 2.141.348.993.424 2.029.464 3.067-1.29 1.726-2.192 1.092-3.675 2.104-2.21 1.505-3.31 3.49-5.927 4.692l-2.331-.77c-1.514-.54-2.693-1.969-3.77-3.073-.763-.908-4.064-4.625-5.113-4.975a4 4 0 0 1-1.443-.82c-.433-.393-1.107-1.284-1.027-1.895.027-.194.607-.571.688-.789.196-.511.004-1.86.009-2.46l-.827-1.3c-.486.184-.781.289-1.112.68-.312-.462-.59-.698-1.063-1.015-1.112-.448-1.697-.942-2.483-1.782l-.259-.28h-.643l-.853 1.74-.335.195c-.71.429-1.076.879-1.367 1.622-.866.125-1.25-.014-2.054-.292-.652-.226-1.309-.3-1.992-.385.58-.368 1.97-1.17 2.251-1.775.317-.682-.125-.785.532-1.644 1.55-.511 1.567-.46 3.019.13l.732-.413c.005-.412.116-1.165.022-1.546-.245-.981-2.264-2.33-2.72-3.61l-.928-2.088z"/><path fill="#391030" d="m577.679 175.457.357-.078c.491-.115.697-.36 1.112-.595.54-.303 1.085-.356 1.675-.488l.5-.156.335.47c-.442.481-.728.584-1.34.79.139.487.393.84.675 1.266l.2.033c.992.31 1.783 1.844 2.644 2.4 1.17.759 3.167.271 4.525.724l.835.166c.656.139 1.058.273 1.505.778l-.5.313c-1.751-.669-2.984-.65-4.86-.628.143.708.411 1.358.17 2.05h-.335l-.187-.336c-.326-.557-.835-.97-1.318-1.402l-.433.138-.862.27c-.804.248-1.661.388-2.46.037l-.26-.144-.857.242-.827-1.3.085-.058c.639-.744 1.206-1.548 1.161-2.522.559.562.974.799 1.756 1.029l.482-.373c-.54-.516-1.514-1.75-2.14-2.052-.361-.175-1.84-.08-2.326-.102z"/><path fill="#273100" d="m569.273 169.385.12.143c.523.623.854 1.232 1.198 1.954.563 1.186 1.313 2.136 2.153 3.16.602.166.786.145 1.38-.004 1.456-.366 2.326.118 3.555.82l-.688.47c.487.022 1.965-.072 2.327.103.625.302 1.599 1.536 2.139 2.052l-.482.373c-.782-.23-1.197-.467-1.756-1.03.045.975-.522 1.78-1.16 2.523l-.086.058c-.486.184-.781.289-1.112.68-.312-.462-.59-.698-1.063-1.015-1.112-.448-1.697-.942-2.483-1.782l-.259-.28h-.643l-.853 1.74-.335.195c-.71.429-1.076.879-1.367 1.622-.866.125-1.25-.014-2.054-.292-.652-.226-1.309-.3-1.992-.385.58-.368 1.97-1.17 2.251-1.775.317-.682-.125-.785.532-1.644 1.55-.511 1.567-.46 3.019.13l.732-.413c.005-.412.116-1.165.022-1.546-.245-.981-2.264-2.33-2.72-3.61l-.928-2.088z"/><path fill="#020200" d="M576.99 175.929c.488.021 1.966-.073 2.328.102.625.302 1.599 1.536 2.139 2.052l-.482.373c-.782-.23-1.197-.467-1.756-1.03l-.42-.456c-.696.371-1.245 1.294-1.728 1.903h-.768c-.505-.673-.965-1.277-1.273-2.052.652-.556 1.112-.706 1.96-.892"/><path fill="#020200" d="m509.463 265.637-.22-.153c-.767-.562-1.084-.974-1.415-1.832.273-.89.599-1.567 1.54-2.04.416-.208.939-.268 1.399-.328l1.424-2.326c2.35-.5 6.106-1.143 8.294.102.429.242.482.419.733.803-.376.671-.523.727-1.188 1.105.531.111.527.205 1.031-.038 1.648-.795 3.238-.972 5.06-1.158 2.153 1 3.69 2.139 4.44 4.37l.187.711c.978.066 2.461-.018 3.167.724.402.423.567.541 1.13.776 1.5.627 2.456 2.54 3.019 3.923.808 1.993.616 5.609.527 7.742-.826.62-1.46.913-2.483 1.152a12 12 0 0 1-2.18-.916l-2.818.08c1.621 1.185 4.578-.329 5.167 2.526.309 1.488-.098 2.71-1.12 3.84-.452.497-1.22.522-1.863.58-1.532 1.072-1.344 3.43-2.483 4.446-.192.17-1.29.414-1.581.497-2.461.703-5.14 1.269-7.695 1.492-.411-.287-.559-.293-.728-.756-.215-.562-.813-.934-1.269-1.317-2.407-2.02-1.375-4.052-.576-6.572l-.612.202c-.21.677-.424 1.316-.513 2.018-.139 1.048-.746 1.881-1.635 2.515-1.362.976-3.818 1.31-5.466 1.04-1.264-.208-1.948-1.128-2.644-2.038-1.336-.465-1.769-.832-2.38-2.091-.657-1.361-1.345-2.535-.76-3.998l.268-.567c-.956.34-1.693.713-2.716.394-.504-1.643.246-3.102-.044-4.579-.112-.556-.88-1.552-1.18-2.089-.455-.805.46-4.211.644-5.19l.353-.266.5-.375c1.246-.836 1.728-1.63 2.452-2.87l3.863.436z"/><path fill="#020200" d="M505.22 280.151c-.956.34-1.693.713-2.716.394-.504-1.643.246-3.102-.044-4.579-.112-.556-.88-1.552-1.18-2.089-.455-.805.46-4.211.644-5.19l.353-.266.5-.375c1.246-.836 1.728-1.63 2.452-2.87l3.863.436.37.025c.885.033 1.372.091 2.19.386.888.32 2.08.335 3.018.312l.33-.312c.398.559.166 1 .483 1.449.174.246.241.423.353.689.152.361.192.47.505.7l-.33.316.227.188c.366.346.42.639.607 1.075l.13.266c.156.338.223.674.312 1.029.21.805-.13-.468.201.442l.027.237.139.141c.482.576.817 1.344 1.201 1.99 1.045.107 1.43-.25 2.175.635.496.582.232 1.086.62 1.733l-.45.946-.5.156-.304-.306c-.33-.325-.527-.276-.871-.482l-.335-.284c-.768.171-1.728.272-2.345.757l-.755-.708c-.473.057-1.004.015-1.362.322-.688.593-1.05.759-1.902 1.017l-.375.13c-.322.104-.563.086-.907.071-1.626-.065-2.282.357-3.8.75z"/><path fill="#020200" d="M298.802 38.524c-1.117-1.606-1.16-2.48-1.113-4.377.008-.313-.046-.47-.14-.76-.287-.887-.16-2.484.281-3.308l4.453-6.429 3.034 1.7.193-.406c-.512-.919-.716-1.135-.613-2.15 1.324-1.205 2.665-2.201 4.195-3.166 1.351.076 2.828.078 4.153.325.644.12 1.881.678 2.444.653 1.27-.056 2.787-1.088 4.036-1.09 1.932-.001 5.13 2.307 6.267 3.575.824.919 1.083 1.592.85 2.8-.06.315-.252.584-.422.852l.402-.158.896-.36c.902-.384 1.42-.416 2.386-.25 2.099 1.207 4.193 3.082 4.738 5.432.275 1.184.204 3.103-.54 4.115-.517.702-1.536 1.361-2.238 1.908 1.407 1.322 2.945 2.5 2.826 4.565-.06 1.067-.78 1.88-1.418 2.701-.677.873-1.029 1.92-1.694 2.804-1.01 1.341-2.428 2.471-3.701 3.588l-2.662-2.436-.14.29.155.218c.825 1.205 1.05 2.092.724 3.497-.564.72-.952 1.343-1.911 1.614l-1.675-.575-.167.142c-2.584 2.128-5.867 1.78-9.06 1.511-1.128-.094-1.813-.591-2.664-1.23-1.498.168-2.996.429-4.488.11-.813-.612-1.073-.757-1.44-1.657.177-2.049 1.662-4.248 2.612-6.09l.047.008.586-.706c.785-1.014 1.404-1.835 1.187-3.092l.013-.525c.52-.507.984-.91 1.235-1.593-.854-1.595-2.956-1.554-4.513-2.123-1.761-.644-3.457-.587-5.317-.604-.807.01-1.152.239-1.797.677"/><path fill="#320E2E" d="m316.082 39.868-.161-.201c-.514-.624-.873-.944-1.617-1.303.436-.697 1.486-1.026 2.234-1.373l1.843.035.261.548c-.546.308-1.016.382-1.63.474-.29.54-.472.987-.622 1.575z"/><path d="M313.826 38.898c.403.535.735 1.094 1.373 1.4l.883-.43.308-.245c-.123 1.029-.148 1.273.28 2.214-.778.22-.676-.069-1.304-.077-.558-.007-1.24.828-1.553 1.182-.045 1.488.475 2.152 1.36 3.316l-.142 1.988-.338.222c-.322-.443-.419-.762-.56-1.283-.423-1.574-1.436-2.448-1.707-4.226l-.94-.882.443-.408-.583-.894 1.904-.863-.046-.243z"/><path fill="#020200" d="m313.25 39.912.837.82-.06.922-1.006.63c-.49-.154-.74-.253-1.092-.615l-.583-.894z"/><path fill="#391030" d="m311.295 36.23.586.057.074-.45-.986-.63-.051-.279c-.391-2.012-1.233-3.558-2.586-5.137l-.692.047-.033-.297c-.165-1.253-.619-2.094-1.282-3.176l.332-.294c1.699 1.03 3.573 5.032 4.455 6.77.332.655.58 1.836 1.24 2.212.906-.809 1.202-1.31 2.56-1.265.672.023 1.11.245 1.667.57l.367.69-.297.736c-1.76.624-2.962-1.134-4.187 1 .246 1.133.486 1.28 1.364 2.114l-.622.77.046.244-1.904.863.583.894-.443.408c-.867.091-1.507.29-2.305.615l.013-.525c.52-.507.984-.91 1.235-1.593-.854-1.595-2.956-1.554-4.513-2.123-1.761-.644-3.457-.587-5.317-.604 1.082-.416 2.564-.909 3.724-.522.688.23 1.343.576 2.047.812.294-.201.753-.619 1.074-.734.437-.156 1.354.05 1.725-.138 1.062-.537.755-.887 2.126-1.034"/><path fill="#020200" d="M306.37 38.137c.294-.201.753-.619 1.074-.734.437-.156 1.354.05 1.725-.138 1.062-.537.755-.887 2.126-1.034-.307.721-.592 1.338-.621 2.121l.672.163-.334.743c-1.525-.162-3.21-.614-4.642-1.121"/><path fill="#020200" d="M152.687 145.179c1.295.05 1.896.243 2.903 1.015.162.658.284.816-.108 1.42l-.83.947c.57 1.273 2.34 1.352 2.612 2.954l.752.113c1.304 1.703 3.292 5.562 5.145 6.547 1.34 1.477 1.903 2.105 2.119 4.087l-.909 1.95.456 5.694c.212 2.071.154 4.113-.471 6.125 1.733 1.64 1.216 4.69 1.536 6.946-.46.861-.721 1.406-1.75 1.765-1.402-.336-2.662-.105-3.937.538-.338.17-.557.378-.726.703l.77 2.33c-1.443 1.755-3.932 3.032-5.817 4.333l-3.507-1.384-1.814 2.053c-1.31.56-3.44.357-4.828.039-1.722-.395-2.791-1.108-3.71-2.528l-.14-.222c-1.798.064-2.368.17-3.747-.996-.42-.828-.454-1.329-.298-2.235l.16-.887.073-.351-.782.127c-.698-.06-1.295-.548-1.867-.903l-.234-.392c-.446-.833-.603-1.962-.259-2.852.338-.871 1.042-1.154 1.9-1.481l.082-.339c-.735.221-1.378.266-2.146.294-.866-.97-1.196-4.31-1.149-5.652.037-1.034.713-2.02 1.505-2.695 1.44-1.229 2.843-1.258 4.666-1.183l-.165-.124c-1.042-.942-1.092-1.173-1.2-2.482 1.11-2.118 4.651-3.13 6.792-4.12-.487-.35-.855-.4-1.442-.506 1.689-.727 3.277-2.435 4.537-3.717 2.243-2.28 2.7-4.86 2.585-7.812-.61-1.29-1.538-2.665-2.45-3.79l-.862-.579 2.256-.544c.79-.278 1.054-.826 1.368-1.522l.827.324c.69-.448 1.324-.728 2.104-1.008"/><path d="m151.574 180.136.82-.196c.211.119.297.148.472.354.36.422.604 1.009.544 1.53l-1.302.206-.567.49-.64-.058c-.113-1.256-.052-1.307.673-2.326"/><path fill="#D03B73" d="M164.827 169.906c-1.445-1.685-2.992-2.746-4.883-3.92.63-.86 1.75-.269 2.68-.576.502-.167 1.286-.881 1.747-1.198z"/><path d="M135.461 180.295c1.648-.154 3.53.066 5.055-.418l.403-.08c1.192-.278 2.024-1.149 2.603-2.14l.344-.682c-.178-.252-.44-.769-.67-.95-.242-.192-.99-.29-1.158-.497-.305-.371-.114-2.158-.098-2.655l.251-.312c.797.918 1.274 2.013 1.977 2.996l.75 1.213c-.509.713-1.716 1.935-1.595 2.758 1.034.008 2.09.118 3.055-.277l.272.195c.429.293.893.322 1.403.374-.693.595-5.637.28-7.151.674-1.646.427-3.808.167-5.523.14z"/><path fill="#D03B73" d="m151.051 150.822.418.77c-2.206 4.578-2.723 10.018-7.705 12.741-.487-.35-.855-.4-1.442-.506 1.689-.727 3.277-2.435 4.537-3.717 2.243-2.28 2.7-4.86 2.585-7.812z"/><path fill="#320E2E" d="m149.756 145.863.827.324.083.275c.377 1.159.952 1.838 1.798 2.73l.34-.022 1.252.022-.222.308c-.22.309-.372.607-.516.955l1.007 1.421c-.664.349-1.117.043-1.75.47l-.339-1.155-.767.402-.418-.77-1.607 1.475c-.61-1.29-1.538-2.665-2.45-3.79l-.862-.579 2.256-.544c.79-.278 1.054-.826 1.368-1.522"/><path fill="#391030" d="M146.993 148.509c1.415-.004 2.217-.291 3.273.724.477.459.624.985.785 1.59l-1.607 1.475c-.61-1.29-1.538-2.665-2.45-3.79"/><path fill="#020200" d="M548.434 136.061c-1.255-2.219-1.746-5.116-3.202-7.092-.254-.345-.42-.709-.603-1.09.228-1.032.505-1.083 1.34-1.737.389-.059.563-.097.947 0 1.809-1.328 2.738-1.471 5.01-1.578.867.365 1.31.784 1.93 1.453 1.89-.681 3.859-1.339 5.882-1.507 1.519.766 4.06 2.18 4.667 3.778l-3.738 2.169 6.087-1.261c.849.504 1.224.795 1.452 1.757l.058.298c1.38 1.12 4.748 3.666 4.9 5.391.129 1.422-.523 2.51-.729 3.867-.236 1.554.09 3.053-.388 4.578-.411 1.3-.768 2.274-1.438 3.5-1.246.547-2.943 1.15-3.926 2.063-1.903 1.761-2.144 5.347-5.11 5.838-.942.156-2.25-.312-3.161-.552-1.858-1.753-3.864-3.44-5.127-5.639-.38-.661-.813-1.269-.769-2.05l-.59.484c-.035 1.036 1.76 3.29 2.551 4.08 1.474 1.485 2.081 1.854 2 3.997-.03.863-.267 1.187-.942 1.79-1.451 1.297-4.144.965-6.047.986l-3.541.836c-1.514-.55-3.028-1.17-4.627-1.459-1.488-1.22-2.492-2.534-3.412-4.168-1.738-1.701-3.06-5.357-4.324-7.538l.568-1.109c.7-1.425 1.518-2.17 2.447-3.427-.232-.253-.46-.495-.634-.79-1.845-3.162-.38-7.122.598-10.306.344-1.13.876-2.116 2.055-2.653 1.545-.702 3.939-.06 5.529.54 1.706.645 3.068 5.13 3.859 6.736z"/><path fill="#273100" d="M549.211 142.923c.809-.218 1.67-.574 2.488-.26.491.39.925.54 1.005 1.161l-1.233.897-.102 1.314c-1.188.909-2.184 2.16-3.185 3.255-1.273.38-1.742.695-3.037.302l.17-.205 1.51-.084c.598-.6 2.018-1.71 2.389-2.394.545-1.012-.139-2.864-.005-3.986"/><path d="M548.434 136.061c.755.912.67 2.221 1.228 2.88.224.263 1.032.667 1.35.907.968-.033 2.139.03 2.844-.7 1.077-1.105 1.26-3.002 2.35-3.846l.317.47c-.398.696-1.398 2.006-1.291 2.778l2.117 2.33-.224.498.166.31a8.6 8.6 0 0 1-1.59-.971c-.358.454-.38.699-1.005.786l-1.005-.942c-.844.136-1.563.12-2.05.895-.322.513-.147.698.058 1.207-.817-.314-1.68.042-2.488.26.38-2.181-.562-4.623-1.205-6.677z"/><path fill="#020200" d="M204.3 87.806c-1.097-.467-1.365-1.026-1.768-2.085-.395-1.04.064-2.842-.31-3.578-.756-1.493-3.567-1.82-2.083-4.178.24-.379.631-.723.959-1.037-.947-1.735-2.583-4.314-2.737-6.279-.034-.422.397-1.407.523-1.845l1.552-4.957c.557-1.64 1.845-1.547 3.094-2.644.897-.789 1.707-1.953 2.332-2.947.583.365 1.155.771 1.802 1.026l.108-.338c.49-1.428 1.194-2.291 2.416-3.217 2.505-.526 4.79 1.067 7.116.712 1.056-.162 2.297-1.385 3.337-1.496.604-.065 3.059 1.233 3.652 1.584.857.506 1.622 1.052 2.338 1.73.147.89.181 1.394-.257 2.21l.304.114c1.254-.922 3.124-1.028 4.739-.859l.585.11 1.193 2.18c.98 1.824 3.686 2.773 4.496 4.85.847 2.17-.804 5.005-1.082 7.142-.123.95.22 2.027.491 2.939l-2.9 3.611c-1.847-.854-3.551-1.587-5.254-2.697l-.125.352c2.16 1.55 4.195 2.583 6.05 4.524l-.308.269c-.823.723-1.49 1.403-2.036 2.334-.64 1.092-.956 2.336-2.097 3.072-1.035-.359-1.822-.084-2.845.16l-.696-.316-.323 1.38c-.368.518-1.05 1.021-1.532 1.462-1.187.324-2.268.065-3.457-.128-1.137.52-2.584 1.135-3.812 1.374-.632.122-1.568-.186-2.18-.325-2.775-.631-4.764-1.551-7.11-3.026l-1.264-2c-1.095-.228-1.911.38-2.911.817"/><path fill="#273100" d="m211.955 74.044 1.08-.08c.677 0 1.19-.062 1.667.395l-.166 1.276a16.7 16.7 0 0 0-1.965 1.882l-.018.426c-.358-.473-.4-1.029-.324-1.592l.062-.413c-.617-.081-.827.003-1.22-.474z"/><path d="m221.651 76.378.514.387-.159.356c-.462 1.05-1.027 2.305-.544 3.436l2.836 4.695-.373.015c-1.078-.952-1.48-2.638-2.362-3.386-.87-.738-1.486-.45-1.926-1.68.539-1.39 1.151-2.106 1.048-3.68l.7.13z"/><path fill="#320E2E" d="m220.685 76.52-.95-.931c-.446.099-.808.16-1.266.142-.058-.328-.106-1.58-.242-1.766-.48-.663-1.512-.934-1.671-1.816.722-.59 1.004-1.011 2.006-1.056.744.415 1.4.64 1.823 1.372l-1.094 1.39.233.504c.602-.292 1.047-.387 1.718-.48 1.813 1.41 3.373 1.415 5.356 2.375l-.332.256-1.507-.714c-.533-.003-.86-.02-1.364.179-.544.214-1.503-.74-2.313-.793 0 .431.344.822.569 1.196l-.266.273z"/><path fill="#020200" d="M517.127 112.38c-1.318-2.476-2.144-4.57-2.738-7.305.87-.743 2.934-3.197 3.961-3.405 1.14-.229 2.555.125 3.618.454.813.251 1.335.47 2.202.337-.42-.27-.795-.497-1.269-.671-1.71-.628-2.773-1.107-4.028-2.383-.916-.93-1.657-2.075-1.603-3.382.808-.675 1.491-1.183 1.8-2.2.843-2.767 1.848-3.727 4.31-5.4.25.014.915-.025 1.116.064 1.188.528 2.228 2.587 2.943 3.605.648.918 1.425 1.725 2.215 2.534-1.393-2.477-2.983-4.92-4.801-7.14l4.328-2.457c1.51.419 2.92.832 4.292 1.563.612.324 4.02-2.04 5.225-2.13.808.475 1.577.75 2 1.578-1.647 1.923-3.447 2.911-4.733 5.21l.143.383c1.232-1.846 2.626-3.83 4.881-4.612 1.613.272 3.194.863 4.797 1.06l2.519 2.38c-.054.63-.036 1.135-.478 1.651l.263-.043c1.541-.242 2.94-.34 4.243.558 2.854 1.966 3.256 5.022 3.716 8.095l.134 1.752c-.55.485-2.858 2.089-2.997 2.575.746.83 1.197 1.16 1.17 2.304-.035 1.671-3.635 7.27-4.912 8.256-.47.363-1.46.62-2.068.589-1.349-.068-2.649-1.564-3.399-2.53l-1.17-1.618-.223.355c.804 1.551 1.3 3.166 2.903 4.109-1.304 2.278 1.768 2.829-2.233 3.963-.795.226-1.622.444-2.457.48-1.42.062-2.528-.576-3.854-.61-1.344-.036-3.162.652-4.395.043-.732-.364-1.375-.91-1.97-1.447l-.124.216c-.581.94-1.005 1.545-2.055 2.05-1.55-.382-3.27-1.122-4.859-1.144-2.068-1.845-2.206-4.096-3.702-6.239l1.34-1.167-.148-.39c-.929.513-1.702 1.036-2.818 1.041z"/><path fill="#391030" d="M531.838 104.46c.741-.287 1.385-.703 2.184-.488.79.212 1.152.518 1.563 1.173-.826.753-2.17 1.462-2.724 2.368l.647 1.162-.335.415c-.357-.293-.607-.51-.83-.91-.692-1.246-1.787-1.979-2.501-3.193l.567-.597 1.125.097z"/><path fill="#273100" d="m531.838 104.46 2.09.144.134.23c-.889.291-1.438.542-2.081 1.206l-.16.17c-.68-.384-.898-.533-1.207-1.223l.92-.5z"/><path fill="#020200" d="M136.771 130.182c1.561-2.047 3.157-4.352 6.029-4.802 1.418-.222 2.76.187 4.08.617l-.169-.295c-.21-.426-.188-.63-.134-1.08 1.346-1.953 3.936-2.112 6.18-2.572l4.138 2.973.426-.127c1.353-.396 3.944-.99 5.28-.365.843.393 2.25 2.007 2.38 2.874.188 1.236-.526 1.946-1.293 2.842.832 0 .807-.578 1.448-.873.608-.28 5.901-.326 6.79-.165.634.114 1.188.616 1.627 1.039 1.02.983 1.61 2.235 2.134 3.501l.248.123c.691.354 1.366.674 1.606 1.427l.376 2.706-1.217 1.715c.302 1.196.934 2.76.474 3.932-.234 1.161.436.973.732 1.909.569 1.799-.83 4.577-2.219 5.682-.501-.202-.519-.136-.83-.599-1.204-1.796-2.905-3.827-5.2-4.344l-.502-.094-.302.195.245.093c1.6.632 3.238 1.504 3.934 3.09.651 1.488.97 3.84.779 5.428-1.592 2.351-3.214 3.51-5.725 4.962-1.041-.154-2.177-.22-3.118-.689l-1.69-2.76-.117 1.65c-1.853-.985-3.841-4.844-5.145-6.547l-.752-.113c-.271-1.602-2.042-1.68-2.612-2.954l.83-.947c.392-.604.27-.762.108-1.42-1.007-.772-1.608-.965-2.903-1.015-.78.28-1.414.56-2.104 1.008l-.827-.324c-.89-.723-1.059-.872-2.206-1.045-.959.552-2.158 1.968-3.005 2.326-.764.323-3.35-.063-4.364.048-1.083.118-2.093.495-3.134.778l-2.344.693-.06-.355c-1.07.457-2.041 1.063-3.034 1.654-.966-.81-2.932-2.338-3.296-3.5l-1.547-9.717c.64-1.068 1.81-2.373 2.957-2.96 1.098-.562 2.214-.788 3.171-1.583.599-.498 1.01-.672 1.788-.822l-.695-1.133c.233-.847.775-1.435 1.33-2.11l.51.109c.174.69.4 1.142.808 1.74z"/><path fill="#D03B73" d="m134.682 131.38-.695-1.133c.233-.847.775-1.435 1.33-2.11l.51.109c.174.69.4 1.142.808 1.74l.136.196-.655 1.065 4.19 2.06-.46.283c-1.657-.928-3.246-1.854-5.164-2.21"/><path d="M134.644 148.308c1.101-.744 4.326-1.409 5.755-1.499l3.65-.246.867-1.328 4.644-1.037c.814-1.02.21-1.763.838-2.698l.599.324.209 1.369 1.21.81.271 1.176c-.78.28-1.414.56-2.104 1.008l-.827-.324c-.89-.723-1.059-.872-2.206-1.045-.959.552-2.158 1.968-3.005 2.326-.764.323-3.35-.063-4.364.048-1.083.118-2.093.495-3.134.778l-2.344.693z"/><path fill="#320E2E" d="M152.415 144.003c1.208-.062 1.836.13 2.666-.827.363-.42.44-.835.509-1.356l.209-.068c.746-.26 1.22-.56 1.592-1.243.825-1.515.744-3 2.218-4.26l.28.47-2.371 4.895.249.454c.905.088 1.603.238 2.43-.198 1.977-1.038 4.376-2.913 6.612-3.175v.472l-.245.066c-1.997.591-4.802 2.309-6.453 3.573-.545-.244-.726-.437-1.32-.244-.767.247-1.222.452-1.614 1.104.417 1.118.442 1.144 1.52 1.755-.684.211-.995.183-1.384.772l.36.855-1.223 1.355c.075.685.365.983.814 1.486l.411-.06a4.5 4.5 0 0 1 1.173-.005l.095.375c.24.822 1.104 1.557 1.652 2.22.838 1.016 2.225 2.931 2.682 4.106l-.116 1.65c-1.853-.985-3.841-4.844-5.145-6.547l-.752-.113c-.271-1.602-2.042-1.68-2.612-2.954l.83-.947c.392-.604.27-.762.108-1.42-1.007-.772-1.608-.965-2.903-1.015z"/><path fill="#020200" d="M361.078 31.733c.254-.068.242-.072.552-.113 2.477-.324 4.413.32 6.368 1.73.671.485 1.062.707 1.106 1.53.055 1.04-.756 2.029-1.437 2.784l-.209.226.162.26c1.613-1.504 2.663-2.47 5.024-2.595 1.428 1.009 2.701 2.022 3.931 3.24.634 2.409 1.565 5.297 1.495 7.778-.49 1.073-1.333 1.587-2.284 2.28 1.583 1.533 3.784 3.255 2.64 5.614-.345.711-1.347 1.244-1.654 2.052-.18.472.025 1.807.032 2.368-1.502 2.555-3.14 3.701-6.005 4.717-2.86-1.721-4.094-4.63-5.455-7.356l-.206.114.308 1.104c.708 2.738 3.065 3.926 4.074 6.293.307.719.193 1.548-.173 2.242-.79 1.5-2.992 3.235-4.692 3.773-2.014.636-4.033-.884-5.744-1.692l-2.103 1.283-1.75.308c-2.11-.812-4.275-.825-6.363-1.49-.75-.238-1.11-.792-1.441-1.43-1.714-3.304 5.468-8.07 6.63-11.181l-.453-.374c-1.42 2.027-3.783 6.274-6.265 7.012l-2.226.659c-2.016-1.854-4.745-4.879-6.013-7.247-.365-.682-.487-1.701-.198-2.436.397-1.006 1.453-1.846 2.455-2.267l.564-.241.212-.1.3-.134c-1.028-.52-1.628-.338-2.503-1.28-.432-1.788.02-4.116.297-5.929.093-.61.165-2.219.464-2.638.712-.999 3.126-1.581 3.99-2.762.453-.62.254-1.367 1.005-1.894l.335.525c.653-.034 1.604-.464 2.177-.426.635.041.665.648 1.462.43-.376-.755-.653-1.385-.79-2.211 1.187-1.191 2.655-1.795 4.317-2.203 2.308-.568 3.597-.099 5.516.97z"/><path fill="#273100" d="M362.438 52.973c1.222.001 2.42.027 3.627-.17-.466.937-1.413 1.78-2.13 2.564-.535-.218-.69-.45-1.004-.903l-.84.16c-.164.402-.18.626-.128 1.054l-.15.297c-.63-.366-.705-.408-1.02-1.034.618-.736.823-1.332 1.645-1.968"/><path d="M361.477 52.047c.329.292.71.572.961.926-.822.636-1.027 1.232-1.644 1.968.314.626.389.668 1.019 1.034-.793.397-1.26.737-1.793 1.42-.235.826-.28 1.274.058 2.081l.09.201c-1.1.705-1.244-.787-2.597-.793l-.67.947-.482-.156-.148-.63c.285-.44.469-.711.954-.975l1.184-.642c.878-.6 1.647-1.3 1.845-2.33l-1.14.074c.178-.912.182-.981-.252-1.81l.544-.658c.733-.168 1.379-.375 2.07-.657"/><path fill="#273100" d="M359.115 55.172c-.455-.23-.69-.335-1.003-.741l-.19-.28-.686-.087c-.395-1.047.595-.834 1.143-1.524.216-.272.351-1.025.432-1.357.162-.663-.03-.734-.4-1.296-.28-.087-.54-.179-.84-.16-1.332.085-1.757.453-2.68 1.264l-.393-.258-.412.2c.193-.581.256-.863.11-1.465-.1-.412-.17-.592.026-.997l.334.414c.437-.172 1.308-.845 1.675-.908 1.517-.26 2.32 1.493 3.685 1.644 1.062-1.053 1.693-1.393 1.927-2.854l.342.122.131.947.615.298-1.675 1.862c-.09.59-.184 1.104.053 1.676l.168.375c-.692.282-1.338.49-2.071.657l-.544.658c.434.829.43.898.253 1.81"/><path fill="#020200" d="m321.447 68.29 2.052.101c2.241.236 4.257 1.757 5.624 3.398l-.845 1.15.152.307c.52-.402 1.064-.829 1.715-1.02 1.318-.387 2.507.196 3.629.785 1.106.58 3.534-.092 5.04.333.592.628.73 1.028.896 1.854.076.376.351.578.68.799 1.492 1.005 2.173 2.013 3.16 3.467.077 1.611.814 6.348.067 7.547-.544.872-1.641 1.096-2.609 1.318l-.352.08v.22c.366.27.735.551 1.037.886.497.552 1.942 3.423 1.872 4.038-.143 1.261-5.884 4.747-6.468 6.957-.142.538-.08 1.383-.113 1.95l-.683.213c-.918-.58-1.308-1.006-1.618-2.014-.58-1.89-2.056-3.852-3.406-5.342l-.313.197c1.21 1.734 3.226 4.375 3.345 6.474.086 1.516-.816 2.154-1.834 3.109-1.573.66-5.03 2.28-6.658 1.89-.7-.168-2.055-.685-2.729-.655-.448.02-1.302.476-1.783.644-2.346.817-4.05.147-6.404-.35l-.328-.534.537-.742-.695-.785c-1.743-.43-2.276-1.81-3.56-2.735-.746-.537-1.602-.62-2.337-1.277-.77-.688-.572-1.427-1.053-2.197-.777-1.241-2.902-1.895-3.664-3.331-.312-.588-.35-1.188-.101-1.788.544-1.316 1.788-2.24 3.109-2.82l1.185-.586a5.2 5.2 0 0 1-1.052-.216c-.826-.277-1.862-1.665-2.163-2.409-1.148-2.833.502-5.273 1.595-7.795.497-1.145.844-2.331 1.365-3.473l1.095-.222c.604-.624.625-1.501.759-2.304 1.682-.176 2.496-1.742 4.098-1.814 1.427.308 2.263 1.201 3.279 2.13l.188-.158-1.16-1.373.584-1.153c1.182-1.875 2.757-2.257 4.865-2.754"/><path fill="#273100" d="M329.969 88.682c.325.262.43.461.59.833l-1.016 1.018c-.687 0-1.375.072-2.003-.228.142-.758 1.124-1.171 1.786-1.617z"/><path d="m329.326 88.688-.272-.167c-1-.587-2.54-1.152-3.746-.914-.52.101-1.095.634-1.495.95l-1.01.077c.465.337.89.662 1.306 1.053l-.22.932-1.321.575c-.503-.26-.487-.219-.649-.735-.372.628-.08 2.626.174 3.336.23.645.94 1.135 1.48 1.545.641.13.906.07 1.31.578-1.475.411-1.73-.625-2.818-.588-.26.008-.379.341-.835.341l-.501-1.42.331-.318-.331-.313c.366-.65.156-.839-.055-1.526-.608-.315-1.07-.454-1.751-.588l-.204-.412.194-.037c.708-.14 1.281-.247 1.696-.866.553-.826.482-1.136.451-2.088-.824-.313-1.865-.142-2.68.146l-.254-.453.925-1.12.197.068c.426.133.214.063.715.166.668.138 1.18.456 1.767.772l.311-.173c.651-.35 1.134-.19 1.532-.344.366-.142 1.178-1.004 1.507-1.285l.475.162.195.51c.428-.14 1.394-.34 1.736-.572.91-.619 1.71-3.03 2.646-3.973l-1.888 4.913 1.725 1.762z"/><path fill="#020200" d="M202.094 107.875c-.309.2-1.142.602-1.33.859-.674.916.06 2.691-1.032 3.707l-2.3 2.113-4.997-4.487-.305.288 2.018 2.384c1.05 1.342 1.809 2.332 1.445 4.108-.248 1.21-1.15 2.313-2.207 3.004-1.271.83-3.859 2.256-5.305 2.054-1.629-.228-2.977-.831-4.465-1.468-.488.468-1.498 1.487-2.165 1.648-.662.161-1.543.06-2.247.17-.964.153-1.972.633-2.953.603-1.656-.05-4.998-.697-6.2-1.832-.273-.522-.44-1.915-.18-2.462.324-.677 1.209-.912 1.462-1.784l-2.68.712c-.92-.931-1-1.523-1.325-2.728l-2.36-.397c-2.2-1.773-3.39-3.554-4.854-5.875.982-1.978 2.44-3.95 4.407-5.153l.278-.168-1.003-.216c-.785-.327-1.208-1.39-1.588-2.072.12-2.718 1.284-6.205 2.57-8.619.688-1.292 2.585-2.22 4.042-2.67 1.207.052 1.778.205 2.757.836l.258.173.442-.14-.719-.948c.019-.373.05-.763.18-1.119 1.613-4.405 5.393-2.221 8.666-2.384.784-.039 1.91-.656 2.632-.956 1.8.362 4.23.585 5.878 1.317 1.682.746 3.253 2.513 4.549 3.756-.888.606-2.201 1.258-2.638 2.228l.36.632c.93-.922 1.709-1.63 3.064-1.906.85-.173 1.478-.441 2.233-.827.427-.218.555-.142 1.026-.11l-.45.988c-.58 1.135 3.369 3.84 3.921 4.84.427.773.357 2.542.43 3.44l.74.133c.755.162.848.246 1.278.862.006 1.745-.424 3.1-1.04 4.736-.285.186-.512.347-.852.433l-.208.04c.793.402 1.012.694 1.394 1.454z"/><path fill="#273100" d="M176.025 94.567c.523.14.633.528.917.947-.137.174-.208.238-.272.474-.517 1.922-.204 4.17 1.031 5.727.298.376.209.353.162.793-.362-.069-1.588-.186-1.838-.363-.09-.064-.101-.807-.196-.947-.232-.343-.855-.786-1.178-1.082l-.609-.267c-1.344-.55-2.04-.876-2.995-1.966l.286-.302c1.317.892 2.72 1.45 4.207 2.035.082-.8.096-1.693.315-2.467.244-.864.188-1.692.17-2.582"/><path fill="#320E2E" d="m184.95 104.671.627.06c-.064.685-.313 1.011-.74 1.565l-.158.2.22.528 3.497-.504 3.59 2.887-.386.473-1.028-.969-1.64-.97c-1.307-.61-1.83-.217-3.118.204l-.657-.316c-.18.054-.307.103-.49.125-1.006.12-2.13-.219-2.947-.757l.105-.518z"/><path fill="#273100" d="m189.424 93.62.516.355-3.648 7.065.37.79c1.814 0 3.564-2.19 5.486-2.3-1.053 1.7-3.29 2.243-4.974 3.297l-.26.165-.843-.218-.274-.283c-.585-.515-.96-.66-1.736-.677l-1.675 1.774-.666-.811-1.343-.003.096-.524c.613-.271 1.184-.537 1.745-.894-.195-.351-.332-.521-.332-.926.628-.117 1.112-.349 1.673-.622.454.423.952.739 1.479 1.075 1.277-.62 3.516-5.702 4.386-7.263"/><path fill="#020200" d="M267.68 62.481c-1.898-.106-2.718.905-4.4 1.297-2.112-1.668-3.859-1.24-6.365-1.6-2.285-.326-3.81-1.27-5.192-2.972.098-1.471 2.522-3.87 3.457-5.171-1.745 1.163-4.56 5.03-6.376 5.399-1.056.215-2.962-4.006-4.044-4.638l-.238-.128-.398-.23-.26-.129c-.087-.753-.063-1.284.202-2.007.523-1.434.764-2.717.809-4.229l.003-.237c.442-.238 1.018-.642 1.486-.801.959-.325 1.705.298 2.68-.385l-4.408-.063c-1.457-1.439-2.564-3.405-3.57-5.145.26-2.294.452-5.24 1.948-7.152.888-1.133 1.501-1.081 2.858-1.294.156-.382.279-.723.361-1.126.393-1.917 1.484-2.741 2.868-4.127 1.12.696 2.115 1.325 3.427 1.653l.27.063.183 1.12c1.73 1.155 2.437 2.407 3.389 4.148l.157-.152c-.272-1.059-.649-2.19-1.272-3.116-.725-1.075-2.273-2.604-2.346-3.911-.048-.846.364-1.86 1.01-2.446.525-.477 1.953-1.168 2.661-1.086.231.027.604.507.838.54.78.106 2.613-.712 3.642-.719 1.924-.013 4.107.916 5.904.822.452-.023.76-.444 1.382-.435 1.694.026 3.152 1.202 4.234 2.316.062 1.705-2.162 3.684-3.284 5.035l.18.374 2.823-3.034c1.083-.965 1.491-.78 2.872-.726.824.653.725.84.901 1.807l.773.44c1.197 2.317 3.61 4.278 4.054 6.865.206 1.204.487 3.744-.36 4.77-.561.678-1.345.565-2.186.645l.167.128 1.137.515c1.383.743 2.92 2.056 3.352 3.53-.529 3.997-4.515 7.446-7.372 10.175-.945-.023-1.761-.242-2.664-.48l-.808-.365c-.49 1.923.214 4.363.623 6.29z"/><path d="m267.805 33.943.487.158c.034.446.025.783.288 1.167.435-.42.608-.746 1.24-.851-.443.71-1.299 1.652-1.53 2.42-.4 1.32-.31 2.89-.62 4.269l-.05.22c.942-.604 3.582-2.902 4.536-2.996.085.558.217 1.147.168 1.71l-2.46.515c-.621.395-1.452.797-1.808 1.432l-.153.313c-.831 1.159-1.027.084-1.776-.144-.304-.093-.994-.009-1.34-.011l-1.34 1.899c-.497-.468-.415-1.2-1.002-1.891.366-.44.974-.585 1.508-.787 1.776-2.526 2.625-4.687 3.852-7.423"/><path fill="#020200" d="m266.769 38.048.415.06c.065.625.16 1.272.003 1.89-.21.83-.35.884-1.06 1.33l-.76-.312c-.05-1.092.802-2.086 1.402-2.968"/><path fill="#020200" d="M389.879 54.755c.149-.258.58-.817.62-1.077.052-.32-.338-.98-.247-1.264.196-.61 1.61-1.06 2.155-1.274 1.013.31 1.576.802 2.345 1.46l.335-.05c-.414-.777-.511-.83-.335-1.725 1.992-1.437 3.81-1.422 6.15-1.679.727-.08 1.415-.379 2.147-.473 1.576-.203 3.35-.024 4.942.04 1.977 1.217 5.586 2.793 7.043 4.491l.032 1.894c.596-.26 1.035-.59 1.535-.981l1.592 1.03c2.67 1.65 4.234 4.786 4.804 7.687.153.782-.16 2.399.104 3 .162.37.806.737.933 1.105.211.611-.493 2.401-.898 2.911-.816 1.028-1.595 1.392-2.905 1.667l.218.046c1.343.3 2.449 1.028 3.166 2.165.485.77.52 1.762.55 2.632l-.285.996-.316.152c-2.382 1.163-2.743 3.12-4.12 5.111-2.645.327-4.294.05-6.837-.629l-1.239-.902-.061.706c1.207 1.674 2.023 2.526 1.914 4.618l-.716.97c-.775.034-1.508.043-2.282-.009-.743-.05-1.231.08-1.905.357l-1.73-.807c-1.259-.423-2.422.267-3.63.181-.502-.035-1.54-.622-2.049-.827-2.73-.346-6.717 1.14-9.112-.235-.163-.95.05-1.19.448-2.052l-.173-.27-.92.81c-1.155-.51-2.083-2.911-2.924-3.957-1.89-2.348-3.906-4.242-5.528-6.827.47-1.819.98-3.674 2.182-5.202.6-.763 1.287-1.232 2.296-1.337l.205-.015c-.272-.35-.646-.54-.978-.837-.917-.82-1.321-2.085-1.308-3.257.025-2.195.688-3.297 2.261-4.807 1.347-.685 2.07-2.238 2.52-3.536"/><path fill="#320E2E" d="M403.588 68.828c.078-.699-.05-1.11.543-1.566.963.194 1.494.479 2.246 1.073-.667.78-.656.978-1.744 1.146-.542-.201-.7-.222-1.045-.653"/><path d="M411.307 81.794c-.72-.127-1.35-.596-1.815-1.121-1.116-1.26-.882-3.067-.758-4.575.116.433.101.85.505 1.105.024-.414.003-.72.257-1.078.532-.753-.216-2.008.408-2.87.114 1.935.717 3.75.881 5.627.074.838.28 1.425.583 2.206z"/><path fill="#320E2E" d="M399.904 74.806c-.37.579-.704 1.067-1.214 1.544l.971-3.011-4.24-.134-.018-.425c.568.142.787.22 1.361 0 1.236-.471 2.216-1.386 2.74-2.525l-.23-.48-1.34.26-.284-.254c.659-.386 1.254-.887 1.857-1.348-.05-2.824.333-5.72-.095-8.532-.19-1.244-.804-2.57-1.098-3.84.782.674 1.126 1.477 1.584 2.355.935 1.788.412 5.635.435 7.721.009.742.014 1.809.485 2.428.286.376 1.872.484 2.399.575.467.918.357.962.037 1.95l-.314.176c-1.015-.41-1.228-.55-2.3-.38-.456.577-.72 1.493-.696 2.21.02.642.307.74.793 1.11z"/><path d="m406.377 68.335.008.704c1.036-.075 1.235-.17 2.1-.72v-.815c-.725-.338-.94-.293-1.212-1.038.448-.721.927-1.818 1.656-2.28-.206 1.073-.738 1.787-.276 2.82 1.74.134 3.208-1.233 4.532-2.306l.492-.428.444.457-.158.57-.23.064c-3.08.907-4.215 4.443-7.26 4.576l-.41.631.153.18c.393.476.568.786.808 1.342.208.482.698.928 1.058 1.32l-.602.424-1.674-1.257c-.38.336-.391.228-.44.758-.09.973-.103 1.728-.9 2.444-.74.239-1.222.448-2.01.154-.888-.331-1.606-.851-2.552-1.129l.833-.6c-.486-.37-.772-.468-.793-1.11-.024-.717.24-1.633.697-2.21 1.07-.17 1.284-.03 2.3.38l.313-.175c.32-.989.43-1.033-.037-1.95l.37-.313c.346.43.504.452 1.046.653 1.088-.168 1.077-.366 1.744-1.146"/><path fill="#020200" d="M400.737 74.205c-.486-.368-.772-.467-.793-1.109-.024-.717.24-1.633.697-2.21 1.07-.17 1.284-.03 2.3.38l-.026 1.463-1.126.999.5.284c.72-.324 1.083-.683 1.86-.442l-.046 1.12c-.301.224-.692.667-1.083.598-.768-.134-1.64-.668-2.283-1.083"/><path fill="#020200" d="M111.454 227.443c-1.386.218-2.902-.668-4.096-.26l.628.263c1.544.748.644 2.602 1.076 3.984.296.948.408 1.969-.16 2.857-.58.91-1.027.97-2.05 1.275l-.856 1.004c-.642.718-3.52 4.085-4.23 4.29-.537.154-2.088-.155-2.726-.174-.966-.03-1.87.2-2.827.25-1.556.08-3.229-.523-4.322-1.576-1.634-1.572-1.246-4.856-1.256-6.962-.012.907.053 1.913-.202 2.79-.209.722-.028 2.001-.411 2.578-1.1 1.651-2.956 2.725-4.495 3.94-.416.33-.837.682-1.331.903-3.025 1.354-7.54-.165-10.491-1.071-.171-1.839-.524-3.51.338-5.232l.148-.278-2.007-.156c-1.046-.231-1.972-1.656-2.672-2.401-1.767-1.884-3.461-3.18-4.936-5.36l.45-1.23c.227-.632.9-2.042.882-2.656-.021-.747-1.287-2.688-1.692-3.444-.677-1.261-.953-2.304-1.206-3.687 1.215-2.66 2.67-4.806 4.107-7.32 1.15-2.011 1.768-4.416 3.895-5.746 1.302-.101 2.656-.274 3.925.098.487.143 2.406.643 2.698.946.584.604 1.103 2.045 1.485 2.813l3.73 7.46.384-.157c-1.049-3.395-3.043-7.09-5.06-10.069l.291-.666c-.213-.146-.304-.193-.49-.408-.874-1.006-.868-1.692-.867-2.908 1.077-1.057 3.782-2.108 5.358-1.885.984.14 2.457 1.019 3.36.979.916-.04 3.402-1.549 4.446-1.99l.881.334c.637.902.442 1.9.388 2.937 1.055-.548 1.972-1.36 3.045-1.852.794-.363 1.38-.46 2.218-.12.82.333 1.285.955 1.634 1.697l.094.212.086.16c.365.711.468 1.368.569 2.145l-1.043 1.646c1.066-.777 1.512-1.544 2.885-1.656 1.14-.603 1.781-.866 3.144-.722.827.815 3.363 2.803 3.567 3.784.199.957.323 1.538.963 2.321.756.926.072 2.773 1.332 3.091 1.57.398 3.129.134 4.248 1.58.856 1.106.481 6.17.185 7.547a6.7 6.7 0 0 1-.398 1.237c-.777 1.651-1.482 3.4-2.616 4.865"/><path fill="#020200" d="m77.325 234.76.605.06c.038.837.186 1.05-.386 1.721l-1.118-.202c-.354-.122-.696-.313-1.033-.473.338-.475 1.385-.834 1.932-1.106"/><path fill="#273100" d="m95.878 218.963-.037-.272c-.11-.751-.178-1.181-.692-1.77.867-1.163 2.201-2.025 3.367-2.913-.531 1.213-1.124 2.406-1.378 3.702l.503.466c.574-.102 1.14-.179 1.675-.409l.331.259c-.613.378-1.193.817-1.913.974l-.428-.306z"/><path fill="#273100" d="m93.502 221.179.148 1.153c-.375.61-.443 1.616-.66 2.319-.257.833-.731 1.612-1.164 2.374.322.753.602 1.316.51 2.137l-.39-.178c-.378-.677-.705-1.3-.906-2.045l-.045-.177c-.467.281-.705.453-1.27.42l-.573-1.681c-.245-.82-.487-1.122-.025-1.909 1.109-.655 1.336-.678 2.652-.687.853-.331 1.09-.722 1.559-1.46z"/><path fill="#391030" d="m98.532 201.445.086.16c.365.711.468 1.368.569 2.145l-1.043 1.646c1.066-.777 1.512-1.544 2.885-1.656-2.446 2.205-4.224 4.147-6.138 6.765-.47.642-1.394 1.612-1.678 2.305-.265.651-.175 2.27-.183 3.005l.127 2.21c1.164.99 1.15.965 2.72.938l1.43-.269.427.306-2.772 1.277a6.3 6.3 0 0 0 0 1.87c-.46.125-.833.177-1.312.185l-.148-1.153-.8-.932c-.857-.291-1.549-.37-2.445-.279-2.101.217-1.975 1.144-3.246 2.478-.888.933-1.497 1.004-2.768 1.045l-.667-.729.667.145c.801-.212 1.341-.5 2.01-.965.238-.78.18-1.535.16-2.338l1.306-.631-1.656-2.368.19-.244c1.734 1.685 1.329.186 2.848.23.28.986.038 1.442-.24 2.382.121.086.303.23.455.292.894.365 2.57.225 3.432-.138.091-.3.091-.437.003-.739-1.374-4.714.417-7.913 3.399-11.522.708-.857 1.861-2.046 2.291-3.05.204-.476.069-1.8.09-2.37"/><path fill="#020200" d="M573.065 225.629c-.156-.964-.607-1.577-1.188-2.35-.406-.539-.34-1.49-.397-2.165l-.661-6.25 5.131-1.268c.09-1.707.143-4.735.831-6.32.706-1.63 4.328-1.95 5.163-3.46.898-.452 1.152-.44 2.188-.414 2.229 2.075 5.453 4.474 7.084 6.96.84 1.286 1.232 2.9 1.665 4.347l.206-.157-.46-2.416-.072-.267c-.942-3.639-4.586-5.613-6.051-9.157.094-.328.192-.63.192-.973l-.014-.277c-.009-.73.054-1.11.67-1.618.603-.493 1.532-.787 2.327-.72 1.836.156 6.682 1.635 7.79 3.01l.106.147c2.05-.34 2.287-1.298 4.002-2.11.974-.462 3.318-.202 4.332.18.724.273 1.099.855 1.416 1.502.085.179.71 1.386.679 1.503-.143.52-.844 1.355-1.126 1.87-.696 1.277-1.21 2.623-1.733 3.967l-1.353 3.077.492.193c1.902-2.904 2.201-6.859 6.163-7.77 1.054-.241 3.287-.7 4.211-.1 2.354 1.525 3.3 5.907 4.775 8.196.821 1.27 2.603 2.336 2.845 3.816.437 2.666-.563 4.499-1.805 6.789-.763.607-1.326.594-2.3.631.286.404.55.42 1.019.57.799.257 1.205.584 1.764 1.167.531 1.538.504 3.115-.304 4.578-.808 1.467-3.702 3.972-5.328 4.546-1.43-.116-2.01-.36-3.18.506.116.486.308.63.706.947.089 1.555.352 4.796-.836 6.002-1.192 1.21-5.596 2.336-7.306 2.33-1.157-.004-2.318-.51-3.448-.718-1.572-.29-5.467-5.013-6.69-6.258-.706 1.466-1.273 3.083-2.993 3.695l-4.841 1.471c-1.085.353-2.108.278-3.233.223-.626-.592-1.126-1.148-1.18-2.024-.022-.34.045-.691.108-1.025l-.26.197c-.37.25-.576.282-1.013.333-1.76-1.776-2.51-3.69-4.904-4.858-.424-.207-.567-.412-.808-.789-.318-1.501-.612-3.225.259-4.627.361-.59.978-1.078 1.514-1.53l-.116-.355c-.804-.24-1.76-.66-2.604-.475-.594-.692-1.398-1.373-1.434-2.302"/><path fill="#391030" d="m596.606 219.319-.567-1.099c.741-.159 1.715.235 2.452.42l.652.614-.152.908-.156.096c-.621.835-.643 1.68-.76 2.662.304.464.612.861.666 1.418-1.389-1.09-1.813-.035-3.17-.313l1.602-.79c.005-.333-.017-.547-.134-.867l-.527-1.567c.666-.169 1.21-.54 1.787-.88l.022-.82c-.897-.264-.906-.15-1.715.218"/><path fill="#320E2E" d="M599.237 218.468c.897 1.312 1.116 1.185 2.523 1.86l.433-.25-.938-.79.505-.503.764.097c.442.594.822 1.133 1.116 1.805l.188.077c.567.237.849.377 1.192.893-.562.607-.92.801-1.755.966-1.491-.327-3.041-1.66-4.43-2.365l.156-.096.152-.908z"/><path d="m598.49 218.64-.218-1.877c.344-.612.688-1.094 1.228-1.56 1.197-1.027 1.81-.69 3.26-.619.255-.755.519-1.44.925-2.136l.107-.178.492.193c-.411 1.083-1.028 3.498-2.024 4.123l-1.005-.524c-.835.431-1.116.76-1.55 1.548l-.468.858-.094.786z"/><path fill="#D03B73" d="M596.606 219.319c.809-.367.818-.482 1.715-.217l-.022.818c-.576.341-1.121.712-1.787.881-.897-.423-1.63-.703-2.626-.823-.156.126-1.063.78-1.094.89-.125.439.438 1.987.375 2.682-.714-.019-1.014-.5-1.523-.946l.282-.947-.384-.343-.277-.04c-1.153-.178-2.412-.433-3.122-1.354l.889-.851c.562.122 1.174.21 1.679.495.281.159.527.285.83.41 1.653-.386 3.373-.493 5.065-.655"/><path fill="#020200" d="m449.83 75.59-.575-.536c-.782-.847-1.577-2.397-1.506-3.521.036-.567.246-.95.599-1.395-1.25-1.943-2.874-4.062-2.294-6.461.406-1.677 1.762-2.539 3.125-3.521.196-.14.964-.59 1.063-.752.102-.179.053-1.12.067-1.41.156-2.923.08-4.457 2.965-6.033.911-.499 2.961.94 4.113.555-.549-.365-.553-.312-.67-.932.813-.54 1.555-.105 1.872-.93.692-1.809 3.072-2.92 4.819-3.604 1.12-.44 2.188-.86 3.358-.302 1.345.639 1.872 1.803 2.189 3.103l.053.25c1.005-1.023 1.983-2.303 3.457-2.696.666.074 1.608.175 2.1.67.227.228.245.298.379.55l-.29 1.18c.95.08 3.287-.187 4.015.088.772.293 2.3 1.888 2.862 2.537 1.64 1.893 2.001 3.485 1.916 5.893 1.456 1.244 4.502 2.745 4.6 4.713.076 1.458-.393 5.538-1.469 6.632-.63.636-1.054.797-1.952.777-2.157-.049-4.158-1.46-6.275-1.583 2.064 1.159 5.052 2.238 5.73 4.55.358 1.225.416 1.895-.276 3 .46.313.692.283 1.228.315 1.26.076 2.425.926 3.385 1.649l.639-.677c-.563-1.113-1.068-1.954-1.97-2.866.076-.8.375-1.132.916-1.737l1.952-.832.259-1.11c1.612-.861 3.979-1.842 5.832-1.343l1.662.558c2.309.861 7.69-1.601 9.298 1.372.536.993.487 2.242 1.019 3.25l.294-.074c1.17-.272 2.3-.346 3.39.267.822.465 1.407 1.12 1.952 1.85l1.01-.036c1.777 2.714 2.942 6.054 2.094 9.202-.255.941-.451 1.099-1.26 1.605l-.964.055.245.14.389.252.272.175c.871.577 1.237 1.145 1.697 2.035 0 2.285-.062 3.984-1.88 5.704-1.366 1.3-2.96 2-4.613 2.905l1.648 3.193c-2.117 2.233-4.525 4.34-7.843 4.52-1.72.094-4.756.34-6.355-.137-.706-.21-1.956-1.275-2.524-1.753l-1.16-1.029-6.718 2.682c-1.282-1.349-2.697-2.81-3.345-4.552-.375-.512-.947-1.152-1.08-1.771-.037-.16-1.233-1.01-1.56-1.37-.808-2.397-2.818-5.154-2.952-7.602l1.153-.76-.92-.146c-.563-.606-.393-1.64-.434-2.443 0-1.201.103-2.474-.174-3.65-.857-.317-1.625-.41-2.541-.476l-.58-1.82-.63.105c-.862.862-2.149 1.672-2.885 2.573-3.176 1.804-4.99-.795-7.83-1.303-.62.166-1.201.243-1.844.304l-1.152.188-.93.087-7.538-.248.21-4.027c-.639-1.38-1.93-2.791-2.836-4.046"/><path fill="#320E2E" d="m493.96 91.489 1.282-.708c.979.29.965.605 1.46 1.423l-.25.706h-.187c-1.174-.09-1.58-.615-2.304-1.421"/><path fill="#273100" d="m496.453 92.91-1.21.56-.26 2.201-.437.19-.206-1.925c-.616-.689-1.027-1.001-1.947-1.266l-1.17.631-.277-.47c.514-.665 1.014-1.315 1.617-1.912.317.334.62.662.991.947l.407-.377c.723.806 1.13 1.332 2.304 1.42z"/><path fill="#320E2E" d="M489.057 77.7c.973 3.38 2.336 6.454 3.805 9.66-1.804-1.764-2.733-4.116-4.957-5.423.607-.86.973-1.28.835-2.368-.045-.372-.215-.758-.353-1.107l.031-.086z"/><path fill="#391030" d="m467.673 64.677 1.108.21.138-.208c.205-.288.433-.499.697-.736l.67.156c.518 1.987-.005 3.107 1.563 4.73l-1.228.475c-.644-.236-1.019-.43-1.447-.954-.224-.274-.331-.434-.64-.633-.428-.277-.718-.654-1.044-1.032l.531.036c-.38-.55-.326-1.098-.34-1.733z"/><path d="m474.06 68.986-.018-.467c1.17-.32 2.568-.164 3.782-.15l.331.307c-.808.504-1.18.126-2.01.315-1.232.282-4.001 2.536-4.752 3.474.005 1.027-.103 1.914.398 2.842.2.372.545 1.34.37 1.713l-.062.03c-1.331-1.19-1.662-3.192-2.22-4.793l2.055-2.318c.848-.01 1.21-.294 1.88-.773z"/><path fill="#D03B73" d="m474.792 80.98.21.05c1.858.398 3.31-.423 4.957-1.132-1.027 1.26-1.536 1.777-1.3 3.46.202 1.392 1.38 2.192 1.064 3.631l-1.162.914c0-1.201.103-2.474-.174-3.65-.857-.317-1.625-.41-2.541-.476l-.58-1.82-.63.105z"/><path fill="#D03B73" d="m460.058 73.36.706.274c-.965 2.411-3.51 6.692-2.086 9.22.38.67 1.519.75 2.247.97l-.93.087-7.538-.248.21-4.027c.973.75 1.612 1.32 2.88 1.48 2.756-1.483 3.627-5.106 4.511-7.756"/><path fill="#273100" d="m496.064 85.832.612-.525 1.246 1.409 1.505-.492c.317-.918-.723-1.887-.165-2.356l1.17.992.313-.193c.415-.25.236-.17.656-.298-.094.959-1.197 2.103-1.777 2.896 1.206.05 2.88-.056 3.984.356-.64.378-1.336.9-2.104.947l-.054.595-.518.33-1.018-.284c-.469.577-.92 1.079-1.492 1.566-.486 0-.973.1-1.375-.151-.393-.248-.75-.273-1.21-.345-.715-.655-1.269-1.515-2.31-1.489-.317.008-.544.08-.848.162-.75.206-1.443.09-2.206-.01l-.675-.546.25-.342c.822-.106 1.702-.298 2.515-.117v-.632l.393-.092c.942.925.996 1.082 2.367 1.154l-1.085-1.378c.473-.847.897-.82 1.826-1.157"/><path fill="#391030" d="m495.323 88.367-1.085-1.378c.473-.847.897-.82 1.826-1.157l.08.213c.322.812.72 1.285 1.367 1.892-.92.617-1.37.098-2.188.43"/><path fill="#320E2E" d="m462.573 64.745.929-1.121-.076-.354c-.255-1.22-.184-2.402-.612-3.593l-.384-1.263.317-.444.34.286 1.183-1.735h.321c.103.379.174.356-.013.719-.93 1.812-.608 4.25-.491 6.231 1.478.758 2.68-.166 3.586 1.206l.009.31c.013.636-.04 1.183.34 1.734l-.532-.036-1.21.096c.111 1.36 2.192 2.206 2.237 2.842.018.222-.272.363-.41.545l-.153-.135a7.8 7.8 0 0 0-1.688-1.097c-.898.09-1.688.193-2.577.002l.616-.578-.549-.34-.942.34c.353.764-.076 1.17.08 1.579.241.643 1.438 1.79 1.965 2.27-.906-.164-1.72-1.083-2.385-1.66-.545 1.012-1.05 2.143-1.71 3.085l-.706-.274c.746-1.907 2.1-2.671 1.554-4.842-1.26-.627-3.68.415-5.087.605-.95.128-1.764.443-2.652.772l-.5-.272c.629-.312 1.321-.725 2.014-.87 1.607-.34 4.466-.88 5.77-1.814.053-.684.152-1.013-.277-1.613-.916-1.283-3.31-2.87-4.917-3.13l-2.425-.364v-.26c4.287-1.548 5.51 2.898 9.035 3.173"/><path fill="#391030" d="M462.573 64.745c1.29-.01 1.697-.091 2.75.603l.063.686c.125.729.139.887-.125 1.574-1.063-.513-1.96-.136-3.014-.827-.371-1.009-.134-1.101.326-2.036"/><path fill="#020200" d="M460.764 73.634c.66-.942 1.165-2.073 1.71-3.085.666.577 1.479 1.496 2.385 1.66-.527-.48-1.724-1.627-1.965-2.27-.156-.408.273-.815-.08-1.579l.942-.34.55.34-.617.578c.889.19 1.68.089 2.577-.002a7.8 7.8 0 0 1 1.688 1.097l.152.135c.139-.182.429-.323.411-.545-.045-.636-2.126-1.481-2.238-2.842l1.21-.096c.327.378.617.755 1.046 1.032.308.199.415.359.639.633.428.523.803.718 1.447.954l1.228-.475 2.21.157-.245.18c-.67.479-1.032.762-1.88.773l-2.055 2.318c.558 1.601.889 3.604 2.22 4.792l.062-.03c1.296 1.234 1.943 2.371 2.631 3.962l-.156 1.08c-.862.863-2.149 1.673-2.885 2.574-3.176 1.804-4.99-.795-7.83-1.303-.62.166-1.201.243-1.844.304l-1.152.188c-.728-.22-1.867-.3-2.247-.97-1.425-2.528 1.121-6.809 2.086-9.22"/><path fill="#463F33" d="m272.973 56.583 11.419 24.86c1.23-1.964 1.384-5.236 2.287-7.495 2.669-6.675 6.494-12.83 10.472-18.85 1.073-1.623 1.76-3.302 3.182-4.725l.251-.245 2.208 1.735-.024.205c-.473 3.277-2.903 6.833-4.356 9.82l-3.385 7.766c-1.48 3.066-2.341 7.363-3.128 10.678-3.914 16.486-3.654 32.903 2.883 48.775 2.641 6.415 5.525 12.382 9.346 18.255l11.601 16.35c6.573 9.72 12.079 20.6 14.69 31.91.96 4.16 1.38 8.535 1.74 12.773.805-2.797.596-5.98.98-8.87.716-5.396 1.93-10.756 3.406-16.01.769-2.733 1.399-5.398 2.59-8.006 5.868-12.839 13.686-25.099 23.398-35.665 3.008-3.272 6.777-6.057 9.646-9.346.049-.056.125-.1.143-.17.096-.366-.345-1.636-.439-2.084l-1.398-6.956c1.011-.698 2.768-1.101 3.966-1.526a32.2 32.2 0 0 0 2.42 7.039c1.441-1.513 3.166-2.787 4.648-4.286 7.227-7.313 14.259-15.853 17.303-25.583 1.076-3.44.972-7.144 2.029-10.48l.058-.175c.509.205 1.547.792 2.05.827 1.207.086 2.37-.604 3.629-.181l1.73.807c.674-.277 1.162-.407 1.905-.357.774.052 1.507.043 2.282.01l.716-.97c.109-2.093-.707-2.945-1.914-4.62l.061-.705 1.24.902c2.542.679 4.191.956 6.836.63 1.377-1.993 1.738-3.949 4.12-5.112l.316-.152.285-.996 1.343 1.362.195-.103c2.12-1.236 2.591-5.182 5.617-4.557l2.685.844 2.065-2.661c4.018.756 6.416 2.28 8.669 5.502l2.88 5.095-.066-.629-.045-.285c-.196-1.389-.95-2.439-1.7-3.62l4.023-1.718c.906 1.255 2.197 2.666 2.836 4.046l-.21 4.027 7.539.248.929-.087 1.152-.188c.643-.06 1.224-.138 1.844-.304 2.84.508 4.654 3.107 7.83 1.303.736-.9 2.023-1.71 2.885-2.573l.63-.106.58 1.821c.916.066 1.684.16 2.541.475.277 1.177.174 2.45.174 3.65.04.804-.13 1.838.434 2.444l.92.146-1.153.76c.134 2.448 2.144 5.205 2.952 7.602.327.36 1.523 1.21 1.56 1.37.133.619.705 1.26 1.08 1.771-4.27 5.946-7.347 11.826-9.986 18.562-2.56 6.532-4.623 13.152-8.365 19.209l11.821-3.577c2.774-.839 6.2-1.363 8.642-2.893l5.315-2.295c2.005-.541 3.39-1.718 5.096-2.79 4.832-3.041 9.004-6.49 13.604-9.78 1.242-.888 1.795-1.725 2.541-2.985 1.202.841 2.135 1.763 3.671 1.955-4.957 5.592-11.004 9.74-16.533 14.743-1.563.642-3.69 3.006-4.337 4.469l-.085.218-.679 1.468.514.833c-1.067 1.714-4.417 5.602-3.863 7.534.111.385.12.275.25.545.446.924.42 2.16.719 3.152.366 1.237 2.791 4.288 3.903 4.98.612-.066 1.233-.097 1.818-.3l.295.673c.044 1.324-.045 1.577.933 2.608 1.362.274 3.555 1.41 4.734 1.288l.425-.288c.455.263.84.515 1.362.642 1.429.896 2.876 1.93 4.48 2.52.67-.601 1.134-1 2.031-1.262 1.925.822 2.926 1.134 5.016.72l3.318-5.261c1.572.008 3.153.078 4.703-.188l-.38-.452c1.09-.572 4.565.368 6.07.277 2.202-.133 4.444-.859 6.52-1.527.92 1.634 1.925 2.949 3.413 4.168 1.599.29 3.113.908 4.627 1.459l3.541-.836.183 14.443c-.116 1.985-.674 4.817-.361 6.747.732 2.633 1.13 4.08 3.707 5.554l-.014.256c.01 1.312-.442 2.026-1.13 3.122.692 1.787.992 2.316 2.778 3.319 1.809 1.297 3.234 2.725 5.57 2.97.442-.566 1.027-1.658 1.741-1.79l.148 2.01c.102 2.643.17 5.326.518 7.953.714 5.378 4.073 18.123.947 22.707.884-.043 1.84-.799 2.617-1.183 1.143-.563 2.38-.99 3.577-1.439.12-.045 1.085-.462 1.175-.446.192.032 1.206.944 1.411 1.122l.71.7c.036.929.84 1.61 1.434 2.302l-.264.07c-.84.216-1.817.534-2.621.708l-.384-.004c-1.523-.01-14.56 7.682-16.789 9.1-1.683-.237-3.17.202-4.537 1.127-.643.434-1.197 1.013-1.742 1.551-1.724-.315-3.452-.764-5.033.222l-.474.329c-3.3 1.243-6.681 1.502-10.138 2.124-18.468 3.325-37.462 5.177-56.27 4.28-27.6-1.317-55.985-7.368-81.692 5.598-1.975.997-4.205 1.908-6.044 3.112-7.691 5.034-12.952 12.04-16.612 20.048-1.945 4.258-3.455 9.587-3.963 14.2-1.245 11.31.065 22.75 1.169 34.004 2.105 21.478 5.143 42.688 10.167 63.745 1.268 5.311 3.39 10.414 4.768 15.703l-79.393.252c-.535-.86-.487-1.185-.228-2.15l4.737-16.734c4.624-18.64 7.26-37.88 9.59-56.873l1.508-15.75c.323-4.536.7-9.402.018-13.922-.818-5.42-3.32-10.202-6.157-14.917-2.898-4.816-7.498-8.785-11.99-12.248-12.541-9.667-27.148-16.41-42.718-20.41-12.805-3.288-26.605-3.908-39.797-4.131-6.267-.106-12.751-.323-19.003.042l-12.801 1.147c-11.13.696-21.827.183-32.542-2.964-1.43-.42-3.682-.533-4.675-1.56-.232-.526-.487-.977-.88-1.415-1.016-1.136-2.242-1.802-3.83-1.892.702-.776 1.11-1.758 1.574-2.673-2.005.404-4.114-1.055-6.048-1.629-1.925-.983-3.433-2.646-5.366-3.678l-.084-.172c-2.052-1.388-3.632-3.597-5.08-5.519-.53-.69-.953-1.526-1.324-2.3-2.414-5.033-1.85-10.76-.808-16.025 1.51-7.633 4.19-14.817 7.096-22.065l.782-.127-.073.351-.16.887c-.156.906-.121 1.407.298 2.235 1.38 1.166 1.949 1.06 3.747.996l.14.222c.919 1.42 1.988 2.133 3.71 2.528 1.388.318 3.518.521 4.828-.039l1.814-2.053 3.507 1.384c1.885-1.3 4.374-2.578 5.818-4.332l-.771-2.331c.169-.325.388-.532.726-.703 1.275-.643 2.535-.874 3.936-.538 1.03-.36 1.29-.904 1.75-1.765-.319-2.255.198-5.306-1.535-6.946.625-2.012.683-4.054.47-6.125l-.455-5.694.909-1.95c-.216-1.982-.778-2.61-2.119-4.087l.116-1.65 1.691 2.76c.94.469 2.077.535 3.118.689 2.51-1.452 4.133-2.61 5.725-4.962.19-1.588-.128-3.94-.78-5.427-.695-1.587-2.332-2.46-3.933-3.09l-.245-.094.302-.195.503.094c2.294.517 3.995 2.548 5.2 4.344.31.463.328.397.83.6 1.387-1.106 2.787-3.884 2.218-5.683-.296-.936-.966-.748-.732-1.91.46-1.17-.172-2.735-.474-3.931l1.217-1.715c1.602.637 3.237 1.9 4.77 2.753 4.098 2.278 8.338 4.214 12.934 5.412 9.728 2.535 20.008 1.412 29.86 3.39 1.848.37 3.74 1.15 5.552 1.69-.614-1.157-1.848-2.053-2.662-3.118-3.453-4.516-5.444-8.49-10.42-11.86l-5.716-3.464c.862-.915 1.669-1.741 2.211-2.867 1.207.615 4.01 2.322 5.281 2.2.108-2.16-.991-4.778-1.501-6.918l-2.424-10.64c-.362-1.582-.584-3.842-1.7-5.095-1.378-.669-3.277-.542-4.807-.596l.028-.746c.885-.545 1.57-1.224 2.308-1.929l1.572-.514c.152-.97-.86-2.354-1.355-3.223l-6.122-9.572c-.821-1.341-2.042-3.12-2.25-4.656l.824-.446c1-.437 1.816-1.045 2.911-.817l1.264 2c2.346 1.475 4.335 2.395 7.11 3.026.612.139 1.548.447 2.18.325 1.228-.24 2.675-.854 3.812-1.374 1.19.193 2.27.452 3.457.128.481-.44 1.164-.944 1.532-1.462l.323-1.38.696.316c1.023-.244 1.81-.519 2.845-.16 4.594 8.422 10.346 15.584 17.206 22.447l5.13 4.915c1.847.795 4.194 3.322 5.858 4.6 6.421 4.935 12.97 9.906 19.84 14.271 2.037 1.294 4.027 2.834 6.292 3.751-1.75-6.627-3.496-13.343-3.86-20.19-.427-8.043.659-16.134.045-24.157-.341-4.464-1.437-8.81-2.912-13.055-1.657-4.765-3.918-9.19-7.194-13.155-1.21-1.465-3.732-3.196-4.414-4.843l1.259-.51 5.108.027c-.41-1.927-1.113-4.367-.623-6.29z"/><path fill="#334032" d="m247.636 110.855 5.13 4.915-.654-.039c-.863-.61-1.473-1.035-2.584-1.172l-.243-.023c-1.27-1.196-1.256-2.054-1.649-3.681"/><path fill="#320E2E" d="M159.479 185.983c.169-.325.388-.532.726-.703 1.275-.643 2.535-.874 3.936-.538-.438 1.22-.085 2.151.545 3.3l1.248 2.035c-1.68-1.156-4.442-3.892-6.455-4.094"/><path fill="#FEFEFE" d="M554.651 193.025c1.809 1.297 3.234 2.725 5.57 2.97-.344.92-.644 1.857-1.251 2.657-.415.546-.59.469-1.26.58-1.531-1.365-2.416-3.888-3.318-5.68z"/><path fill="#fff" d="M553.003 186.584c-2.17-.008-3.635 1.554-5.248 2.772-.165-2.62.898-6.035 1.555-8.582.732 2.633 1.13 4.08 3.707 5.554z"/><path fill="#FEFEFE" d="M475.846 83.777c.916.066 1.684.16 2.541.475.277 1.177.174 2.45.174 3.65.04.804-.13 1.838.434 2.444l.92.146-1.153.76c.134 2.448 2.144 5.205 2.952 7.602-1.974.967-4.439 4.718-5.814 6.468-.617-6.828-.876-14.713-.054-21.545"/><path fill="#fff" d="M208.475 88.99c2.346 1.474 4.335 2.394 7.11 3.025.612.139 1.548.447 2.18.325 1.228-.24 2.675-.854 3.812-1.374 1.19.193 2.27.452 3.457.128.481-.44 1.164-.944 1.532-1.462 1.284 4.927 3.595 9.958 5.691 14.634l-14.386-.061c-.975-1.016-1.562-2.801-2.312-4.017-2.318-3.757-5.082-7.268-7.084-11.199"/><path fill="#FEFEFE" d="m424.165 76.36 1.343 1.362-.945.003c-.34 1.21-.002 3.832.737 4.931l.164.228-.308.176-.425.266-.204.126c-1.315.859-2.395 2.399-2.729 3.86l-.179-1.901-.405-.076c-1.612 2.278-2.248 5.443-3.749 7.92-2.498 4.124-5.529 7.438-8.828 10.992-.673.725-1.837 2.359-2.783 2.603-.264-2.476.446-5.005.697-7.476.426-4.166.502-8.287.037-12.451l1.73.807c.674-.277 1.162-.407 1.905-.357.774.052 1.507.043 2.282.01l.716-.97c.109-2.093-.707-2.945-1.914-4.62l.061-.705 1.24.902c2.542.679 4.191.956 6.836.63 1.377-1.993 1.738-3.949 4.12-5.112l.316-.152z"/><path fill="#320E2E" d="M412.607 81.99c2.543.679 4.192.956 6.837.63l-.437.38c-1.225.993-2.092 1.494-3.738 1.34-.976-.09-2.075-1.659-2.662-2.35"/><path fill="#fff" d="m424.111 92.487 2.044.186.014.218c.17 1.906 1.338 3.362 2.9 4.518.466.345.995.556 1.524.798 1.603.735 2.509.12 4.17-.378 1.147-.344 2.264-.714 3.294-1.317l.1-.136c.382-.426 1.03-.622 1.48-1.003 1.082-.916 1.703-2.102 3.254-2.32l-9.218 13.27-1.74 1.98c-.554-.473-.773-.891-1.547-.846-1.599.093-3.11.74-4.483 1.476-.667.812-.88 1.524-.832 2.557-1.441.362-3.485-.065-5.083.082l-.723.475c-.812.774-1.426 1.098-1.562 2.23l-.555.265c-1.86-.188-3.925-.493-5.67-1.133-.604-.387-.676-.433-1.401-.45l1.011-.359.409-.824c.467-.64.62-.903.783-1.664.828-2.332 4.003-5.187 5.6-7.216l5.251-7.336c.76-1.12 1.284-1.747.98-3.073"/><path fill="#334032" d="m412.28 110.112 6.985 1.935c-.812.774-1.426 1.098-1.562 2.23l-.555.265c-1.86-.188-3.925-.493-5.67-1.133-.604-.387-.676-.433-1.401-.45l1.011-.359.409-.824c.467-.64.62-.903.783-1.664"/><path fill="#fff" d="m506.149 159.966-.375.365c-2.144 1.982-4.833 2.52-7.655 3.217-6.94 1.714-13.399 2.258-20.558 2.278 1.71-1.635 2.184-2.85 3.274-4.789a75 75 0 0 0 4.765-10.158c1.675-4.41 3.117-9.796 6.087-13.565 1.18-.88 2.644-.58 4.051-.483l-.679 1.468.514.833c-1.067 1.714-4.417 5.602-3.863 7.534.111.385.12.275.25.545.446.924.42 2.16.719 3.152.366 1.237 2.791 4.288 3.903 4.98.612-.066 1.233-.097 1.818-.3l.295.673c.044 1.324-.045 1.577.933 2.608 1.362.274 3.555 1.41 4.734 1.288l.425-.288c.455.263.84.515 1.362.642"/><path fill="#020200" d="m425.508 77.722.195-.103c2.12-1.236 2.591-5.182 5.617-4.557l2.685.844 2.065-2.661c4.018.756 6.416 2.28 8.669 5.502l2.88 5.095c-.142 3.768-.937 8.142-4.11 10.819l-.414.317-.204.076c-1.55.217-2.172 1.403-3.254 2.32-.45.38-1.098.576-1.48 1.002l-.1.136c-1.03.603-2.147.973-3.295 1.317-1.66.498-2.566 1.113-4.17.378-.528-.242-1.057-.453-1.524-.798-1.561-1.156-2.73-2.612-2.9-4.518l-.013-.218-2.044-.186c-1.238-1.454-1.733-3.421-2.313-5.175.334-1.461 1.414-3.001 2.729-3.86l.204-.126.425-.266.308-.176-.164-.228c-.739-1.099-1.077-3.721-.737-4.93z"/><path d="M438.057 96.512c-.306-2.116-1.44-3.587-1.496-5.89l.308.026c.31 1.165.709 2.44 1.345 3.485.303.5.328.447.92.6.31-.386.5-.613.559-1.108.136-1.143-.34-1.394-1.058-2.215l.248-.36c1.352.617 2.5 1.548 3.973 1.879l.239.05-.204.075c-1.55.217-2.172 1.403-3.254 2.32-.45.38-1.098.576-1.48 1.002z"/><path fill="#fff" d="M483.488 138.772c.58-.144.652-.203 1.2 0-2.46 4.407-3.563 9.568-6.05 13.998-1.1 1.957-2.573 4.342-4.212 5.927-5.69 5.504-13.283 6.375-20.929 7.405-2.89.389-6.185.679-8.974 1.483l-.197.06-1.005.319v-.416c6.023-5.88 11.2-11.929 16.134-18.642.898-1.223 1.706-2.503 3.073-3.306 1.697-.998 3.98-1.578 5.868-2.208z"/><path fill="#fff" d="M554.392 193.552c-.634-.572-.692-.77-1.594-.835-.429 1.239.5 3.352.853 4.627l2.938 11.048c1.278 5.843 2.863 14.304-.897 19.501-1.554 2.15-4.788 3.007-7.311 3.766-4.605 1.386-9.165 2.447-13.953 3.148l-9.463 1.16c1.264-1.515 2.224-3.244 3.35-4.852 3.157-4.517 6.176-9.234 8.11-14.352 2.072-5.48 3.497-11.365 6.494-16.49 2.326-3.977 5.913-7.128 8.954-10.567.692 1.787.992 2.316 2.778 3.319z"/><path fill="#fff" d="M245.86 152.894c-3.898-3.093-6.886-6.468-9.993-10.255-3.371-4.111-6.977-8.835-9.334-13.551-3.12-6.243-4.977-13.23-6.937-19.86 9.05.439 15.518 2.376 21.732 8.858 1.688 1.762 3.13 3.726 4.758 5.537l13.681 14.43c17.687 17.055 38.283 31.345 48.894 53.777-5.608-2.923-10.723-6.615-16.24-9.703l-28.103-15.88c-3.495-2.14-6.999-4.13-10.27-6.591-3.025-2.017-5.793-4.075-8.188-6.762"/><path fill="#020200" d="m245.86 152.894-.193-1.095c-.198-1.942 2.63-5.113 3.913-6.439l.641-.627.89.115c.058-.557-.044-1.372.435-1.725.875-.645 3.673-.558 4.763-.371 1.033.177 3.39 1.015 4.27 1.562 1.235.77 2.997 3.563 4.037 4.77-.262 2.598-.464 4.899-1.95 7.179-1.271.653-2.423 1.45-3.908 1.338l-.454-.021-.093.152c-.656.957-2.534 1.708-3.704 1.88l-.46.044c-3.024-2.017-5.792-4.075-8.187-6.762"/><path fill="#fff" d="m135.839 186.262.782-.127-.073.351-.16.887c-.156.906-.121 1.407.298 2.235 1.38 1.166 1.949 1.06 3.747.996l.14.222c.919 1.42 1.988 2.133 3.71 2.528 1.388.318 3.518.521 4.828-.039l1.814-2.053 3.507 1.384c1.885-1.3 4.374-2.578 5.818-4.332 3.12 3.613 6.754 7.521 9.16 11.567 1.818 3.059 2.807 6.509 4.308 9.682 2.28 4.82 4.559 9.798 7.859 14.08 4.8 6.23 11.81 10.67 18.575 14.813-14.324 4.145-28.404 4.884-43.174 2.525-1.828-.292-5.353-.521-6.889-1.345-.53-.284-.975-1-1.308-1.467-.293-.29-.922-.393-1.328-.52-2.005.405-4.114-1.054-6.048-1.628-1.925-.983-3.433-2.646-5.366-3.678l-.084-.172c-2.052-1.388-3.632-3.597-5.08-5.519-.53-.69-.953-1.526-1.324-2.3-2.414-5.033-1.85-10.76-.808-16.025 1.51-7.633 4.19-14.817 7.096-22.065"/><path fill="#020200" d="M130.874 226.652c.728-2.017 1.244-3.77 3.413-4.778l.897-.375c-.043-.613-.463-.653-.563-1.105-.076-.342.267-1.414.344-1.827l.839-5.303 1.112-1.08.25-1.136c.662-.13.986-.045 1.64.127 3.135.827 5.179-2.862 8.075-.451 0-1.255-2.284-1.459-.716-2.983.926-.9 2.573-1.54 3.898-1.566 1.365-.027 2.586.455 3.81.963 1.597.662 2.938-.206 4.451.023 1.31.198 2.895 2.294 4.096 2.971l.539 1.84c1.51.513 1.792 1.508 2.99 2.42.258.197.388.428.568.686.55.785 1.304 1.056 1.974 1.685 1.237 1.159 1.572 3.15 1.283 4.724-.298 1.62-1.44 3.2-1.121 4.861l-.502.315-.838-.194-.063.332c-.522 2.453-2.322 6.24-4.33 7.825-1.045.825-3.53.619-4.808.524-.847-.586-1.326-1.094-1.853-1.95-.666 2.218.148 3.214-2.512 4.585-1.063.548-2.631 1.17-3.84.797l-.525-.196-.375-.13-.226-.087c-.293-.29-.922-.393-1.328-.52-2.005.405-4.114-1.054-6.048-1.628-1.925-.983-3.433-2.646-5.366-3.678l-.084-.172c-2.052-1.388-3.632-3.597-5.08-5.519"/><path fill="#320E2E" d="m135.955 232.171.409-.116c1.15-.33 1.921-.605 2.812-1.396.221.36.295.364.261.798-.118 1.538.105 2.543 1.203 3.736.254.277.54.531.765.828-1.925-.983-3.433-2.646-5.366-3.678z"/><path fill="#273100" d="M150.85 223.71c.452.121.626.455.922.789-.317.302-.511.463-.94.626l-.337.111c1.41.392 2.84.567 3.908 1.631l-.226 2.21c-.292.407-.629.64-1.027.947l-.537-.72c-.053-.737-.143-1.36-.373-2.067l-2.01-.61-.192-2.128z"/><path fill="#fff" d="m447.62 81.842-.067-.629-.045-.285c-.196-1.389-.95-2.439-1.7-3.62l4.023-1.718c.906 1.255 2.197 2.666 2.836 4.046l-.21 4.027 7.539.248.929-.087 1.152-.188c.643-.06 1.224-.138 1.844-.304 2.84.508 4.654 3.107 7.83 1.303-1.229 5.636-1.979 11.781-2.475 17.51-.554 6.335-.875 12.481-3.148 18.545-1.948 5.184-4.85 9.479-8.089 14.009-4.095 5.733-9.66 11.608-15.723 15.56-8.3 5.41-17.038 10.201-26.243 14.174-1.422.613-2.806 1.5-4.256 2.014l-7.956 2.975c-3.981 2.348-8.444 3.996-12.457 6.304-8.972 5.158-16.404 11.44-24.09 18.1-2.598 2.252-5.438 4.278-7.46 7.04l-.121.168c4.74-19.916 11.16-38.465 23.556-55.41l18.754-23.677 4.565-5.904c.378-.47 1.053-1.58 1.534-1.9.68-.45 2.483-.584 3.336-.734 1.745.64 3.81.945 5.67 1.133l.555-.266c.136-1.131.75-1.455 1.562-2.23l.723-.474c1.598-.147 3.642.28 5.083-.082-.048-1.033.165-1.745.832-2.557 1.374-.735 2.884-1.383 4.483-1.476.774-.045.993.373 1.547.846l1.74-1.98 9.218-13.27.204-.075.413-.317c3.174-2.677 3.969-7.051 4.112-10.819"/><path fill="#463F33" d="m447.62 81.842-.067-.629-.045-.285c-.196-1.389-.95-2.439-1.7-3.62l4.023-1.718c.906 1.255 2.197 2.666 2.836 4.046l-.21 4.027 7.539.248.929-.087 1.152-.188c.111 1.162.2 1.325-.608 2.25-2.876 3.284-7.614 5.005-10.566 8.282-1.014 1.128-1.67 2.856-2.466 4.15-1.914 3.116-4.176 6.318-6.604 9.097l-.395.206c-2.524-.995-5.067-1.244-7.765-1.298l9.218-13.27.204-.075.413-.317c3.174-2.677 3.969-7.051 4.112-10.819"/><path fill="#fff" d="m452.457 83.663 7.539.248-7.91 3.813-.3.184z"/><path fill="#020200" d="M403.861 169.422c-.472-.029-.953-.079-1.405-.216-1.248-.377-2.964-1.1-3.586-2.233-.185-.335-.3-.542-.601-.81l-.74.22c-1.697.481-3.973.517-5.561-.323-.752-.398-1.486-.529-2.24-.86-.808-.357-1.147-1.162-1.289-1.957-.156-.879.558-1.572 1.047-2.245-.181-1.173-1.422-.417-2.237-1.386-.748-.888-2.882-4.421-2.669-5.526.446-2.313 1.577-3.226 3.543-4.52l.084-1.321c.031-.478.031-1.001.18-1.463.257-.792.936-1.198 1.675-1.547 1.002-.058 1.645-.024 2.564.384l.229.107c-.312-.578-.508-1.12-.69-1.744 1.484-1.135 1.671-2.746 3.676-3.36.672-.207 1.928.405 2.7.446 1.442.078 3.209-1.092 4.556-1.002.794.054 1.961.76 2.709 1.095.786.352 1.022.75 1.442 1.456l.152.26.75.17c1.187.23 2.176.55 3.164 1.226 2.102 1.44 3.255 3.818 3.63 6.182-.238.909-.512 1.37-1.227 2.029-.518.477.945 1.45 1.21 1.968.463.906.4 3.471.316 4.528l-1.803.948-1.623 6.519z"/><path fill="#020200" d="M433.673 106.323c2.698.054 5.24.303 7.765 1.298l.395-.206c1.133.134 2.091.21 3.076.814.588.854 1.54.965 1.315 1.882l-.119.397c.988.498 2.05.431 3.145.46l2.202.588c1.313 1.22.304 1.708.848 3.03.585 1.41 2.497 2.55 2.903 4.001.139.502.05 1.33.054 1.877.018 2.748-.764 5.417-.782 8.152-.004 1.171.782 2.205.572 3.294l-.254.158c-1.153.743-3.658 3.49-4.962 3.244-1.67-.315-2.98-2.182-4.06-3.352 1.023 1.593 2.836 3.757 2.264 5.708-.406 1.373-1.206 2.517-2.547 3.23-.55.292-1.047.421-1.664.517-.95-.383-1.291-.71-2.31-.34-.63.229-1.38.734-2.004.878-1.555.36-7.422-.877-8.917-1.475-.99-.395-1.442-.861-1.952-1.706l-.226-.265-.246.157c-1.39.865-3.532 1.368-5.212 1.072-.7-.123-.9-.23-1.26-.827-.279-.465-.37-1.018-.483-1.536-1.012-.646-2.53-1.41-2.814-2.583-.096-.398.006-.702.094-1.089.572-2.503-2.442-4.318-.451-6.611l-.187-.066c-.865-.332-1.27-.832-1.827-1.513.02-.598.108-1.011.309-1.579l-.135-.304c-.715-1.666-.618-3.794.182-5.433l1.697-2.946-.38-.973c.137-1.131.751-1.455 1.563-2.23l.723-.474c1.598-.147 3.642.28 5.083-.082-.048-1.033.165-1.745.832-2.557 1.374-.735 2.884-1.383 4.483-1.476.774-.045.993.373 1.547.846z"/><path fill="#391030" d="M449.25 110.968c-2.086 1.783-4.113 3.496-4.702 6.177-.146.664-.485 1.258-.796 1.865l-.3-.13c.716-1.284.553-1.777.762-3.157.139-.915.792-1.682.891-2.647.104-1.002.482-1.697 1-2.568.988.498 2.05.431 3.145.46"/><path fill="#391030" d="M419.988 111.572c1.598-.147 3.642.28 5.083-.082l1.44 1.95c1.589 2.078 2.245 4.798 3.843 7.019l-.264.224c-1.87-.903-2.277-1.203-2.935-3.114-.801-2.325-1.232-3.999-3.734-5.198-1.102-.527-2.22-.668-3.433-.8"/><path d="M434.445 114.46c3.075 1.431 1.13 3.974 2.174 5.999.376.31.707.627 1.203.752l.258.039.11 1.103-.389.36c-.426-.296-.698-.506-.964-.946l-.212-.361-1.008-.047c-.119.797-.089 1.351.203 2.115l.122.3c.384.967.925 1.378 1.825 1.941l.192.112-.166.471-.836.157c-.866-.439-1.1-1.057-1.5-1.86-.236-.473-.387-.473-.845-.74l-.67.39-.248 1.032c-.623.118-1.15.224-1.72.508l.15.48-.526.817-1.005-.459-.963.445c-1.206.449-2.173.295-3.3-.196-.95-.583-1.506-.833-2.659-.767-.407.023-.443-.076-.78-.278l1.4-.458c.726-.276 2.279.794 3.056 1.014.72.203.934.113 1.57-.228-.335-.58-.502-.935-.577-1.591l.578-.238c.386.654.446.953 1.172 1.29.793-.793 1.195-1.148 2.345-1.365l.002-.478a10.6 10.6 0 0 1-1.841-1.104l.834-.628 1.005.631c.646.348.804.369 1.51.155-.524-.164-.68-.378-1.004-.79 1.951-.526 1.248-1.799 2.676-2.838.208-.896.148-.849-.331-1.582.378-.245.349-.394.499-.79z"/><path fill="#fff" d="m163.277 156.525 1.691 2.76c.94.469 2.077.535 3.118.689 2.51-1.452 4.133-2.61 5.725-4.962.19-1.588-.128-3.94-.78-5.427-.695-1.587-2.332-2.46-3.933-3.09l-.245-.094.302-.195.503.094c2.294.517 3.995 2.548 5.2 4.344.31.463.328.397.83.6 1.387-1.106 2.787-3.884 2.218-5.683-.296-.936-.966-.748-.732-1.91 1.336 1.161 3.808 1.816 5.46 2.69 6.164 3.259 12.47 5.629 19.39 7.055 12.004 2.473 24.26 2.375 35.199 8.46 2.382 1.325 4.199 3.468 6.065 5.36 2.737 2.776 5.367 5.46 8.412 7.947l.298.295c.698.694 1.252 1.182 1.465 2.152l1.375.384c3.566 1.612 6.71 3.964 10.006 6.01l19.726 12.464c1.783 1.155 3.86 2.346 5.544 3.56.842.607 1.18 1.272 2.193 1.712 1.32.573 2.841 2.195 3.945 3.123 8.885 7.465 16.028 17.462 19.516 28.21 2.838 8.748 4.036 18.193 4.358 27.304.153 4.328-.104 8.804.517 13.092-5.53-7.421-11.727-14.11-19.416-19.632-13.69-9.829-31.601-15.447-48.379-18.2-6.346-1.042-13.194-1.862-19.631-1.972-5.159-.088-10.427.263-15.568-.116-9.926-.732-18.493-5.932-26.223-11.386-2.14-1.473-3.674-2.962-5.504-4.724-1.056-1.016-2.144-1.887-2.802-3.19l-1.897-3.568-.018.002-1.245-1.783c-3.276-4.881-5.917-11.336-7.366-16.937l-.429-1.086c-.472-1.405-.194-2.832-.375-4.269-.285-2.26-1.962-5.93-.82-7.98-.109-4.586-1.473-8.628-3.208-12.87-.61-1.491-1.16-3.23-2.081-4.568l-.401 1.072c-.216-1.982-.778-2.61-2.119-4.087z"/><path fill="#020200" d="m264.544 222.715.317.001c.682 0 1.217.012 1.86-.23.605-.227 1.319-.332 1.958-.469.261.585 2.016 3.966 1.846 4.36-.77 1.785-1.865 3.256-2.711 4.97l-2.676 2.109c-.455.308-.996.555-1.574.47-3.26-.484-1.764-2.864-3.078-4.533-.484.19-.733.299-1.257.2-.557-.708-1.31-1.529-1.617-2.364-.384-1.044-.154-1.94.364-2.888 1.449-1.4 4.594-1.48 6.568-1.626"/><path fill="#020200" d="m193.218 201.44.169-1.082c.492-.57 1.055-1.283 1.862-1.444 2.07-.414 2.73.468 4.216 1.488l.167.113c1.32.312 2.254 1.42 3.365 2.118 1.243.78 2.202.994 3.105 2.222.669.91-.032 4.95-.405 5.908-.139.356-.338.527-.614.79l.11.163c.438.675.6 1.277.758 2.047-.392 1.201-1.24 1.687-2.366 2.255-.792.4-1.551.736-2.44.902l-1.313-.804-.31.175.164.224c.62.875.762 1.488.826 2.527l-1.092.748.186.92c-.686.623-1.595.71-2.477.976-1.117.336-2.799.56-3.87-.012-.312-.167-.284-.091-.341-.348-.245-1.113.377-2.123.754-3.149.794-.948.894-1.975 1.528-2.946.833-1.274 1.602-2.67 1.885-4.162.637-3.369-1.866-7.017-3.867-9.628"/><path fill="#020200" d="M188.919 199.844c1.432.46 2.582.829 3.768 1.74l.531-.143c2.001 2.611 4.504 6.26 3.867 9.628-.283 1.491-1.052 2.888-1.885 4.162-.634.97-.734 1.998-1.528 2.946l-.423-.068c-.427 1.525-.872 2.734-1.823 4.054-2.14-1.473-3.674-2.962-5.504-4.724-1.056-1.016-2.144-1.887-2.802-3.19l-1.897-3.568-.018.002-1.245-1.783c1.052-.821 2.039-1.63 3.285-2.18-.085-.427-.16-.856-.038-1.284.526-1.86 1.446-1.539 2.697-2.415.65-.456.905-1.413 1.362-2.012.38-.498 1.1-.856 1.653-1.165"/><path fill="#fff" d="M183.245 206.72c.429.737.722 1.318.877 2.149-.94.528-2.151 1.07-2.899 1.812l-.018.002-1.245-1.783c1.052-.821 2.039-1.63 3.285-2.18"/><path d="m192.687 201.584.531-.143c2.001 2.611 4.504 6.26 3.867 9.628-.283 1.491-1.052 2.888-1.885 4.162-.634.97-.734 1.998-1.528 2.946l-.423-.068.877-2.747c-.961-.728-1.993-.26-3.095-.973l.254-.468 2.155-.504 1.173.86c.769-.728 1.15-2.523 1.43-3.532.846-3.039-1.772-6.669-3.356-9.161"/><path fill="#020200" d="M264.482 222.345c-2.189.213-4.636.56-6.73-.252-2.154-2.897-1.917-6.432-1.952-9.823 2.24-1.692 5.878-4.118 6.256-7.036l.084-1.101c.947-.212 1.16-.068 1.952.396 2.98 1.745 4.196 3.933 5.169 6.955a4.5 4.5 0 0 1-.078-1.04c.077-1.535-.754-2.629-1.826-3.72-1.33-1.352-2.445-2.229-2.696-4.17.678-1.125 2.087-1.708 3.237-2.358 1.627-.197 3.673.727 5.058 1.441.263.135 1.297.802 1.532.807.225.003 1.13-.506 1.377-.612 2.12-.914 4.327-1.885 6.385-.394.57.412.962.716 1.63.986.28.804.263 1.207.056 2.023-.12.474-.13.939-.143 1.422l.142.158.21-.208c.714-.687 1.36-1.136 2.414-1.189.907-.045 1.772.326 2.398.923 1.043.993 1.507 2.132 1.793 3.474l.164.743.226.055c1.112.302 1.9.968 2.424 1.943 1.06 1.967-.095 4.146-.303 6.194-.092.9.149 1.878.388 2.748-.52 1.843-2.284 2.22-3.244 3.726l-1.657.36-1.232.107c.827.662 1.54 1.182 2.028 2.122-.242 1.006-.62 1.574-1.6 2.159-.64.382-1.394.617-2.11.84-.417.996.137 2.027-.145 2.842-.066.192-1.907.988-2.15 1.087-1.197.487-4.36 2.128-5.637 2.12-.894-.005-2.386-.723-3.333-.93-1.291-.28-2.763-.23-4.088-.262-1.068-.694-1.509-1.264-2.106-2.315-.09-.39-.385-.847-.561-1.218.846-1.715 1.94-3.186 2.711-4.971.17-.394-1.585-3.775-1.846-4.36-.64.137-1.353.242-1.959.47-.642.241-1.177.23-1.86.23l-.316-.002z"/><path fill="#273100" d="M264.482 222.345c.762-.32 1.496-.597 2.147-1.097 1.039-.004 1.99.017 3.017.176.832-.306 1.289-.463 1.775-1.188l-.192-.195c-.436-.45-.798-.76-.914-1.384.584-.847.709-.972 1.674-1.405l.253.216-.84 1.032c.547.623.547.763 1.424.917 1.57-.782 3.25-1.945 3.8-3.602l2.23-1.175.113.35-.547.668c.356.784.808 1.04 1.103 1.926.823.1 1.267-.094 2.01-.415l.16.274c-.727.473-1.289.87-2.17 1.017l-1.933-1.741c-.515.126-.633.089-.916.523-.5.763-.353 1.814-.327 2.678.74.751 1.326 1.737 2.506 1.737l1.337-.158c-.32-.763-1.486-.844-1.002-1.722.093-.168.362-.423.503-.566.492.431.203.784.502 1.203.199.278 1.042 1.046 1.34 1.232.413.258 1.581.402 2.096.538 2.053.54 3.526 1.246 5.117 2.611l-1.232.108-1.942-1.123c-1.432-.845-3.557-1.028-5.211-1.301-.823.461-1.265.956-1.843 1.67l-.74-.124c-.189-.314-.566-.774-.666-1.105-.281-.93.727-1.165-.603-1.678l-1.34.41-.558-.31-.112-.477.898-.629c-.201-.627-.133-.663-.73-.975-.484.361-.72.62-1.006 1.136-.647.303-1.268.628-1.976.786l-.327.632c.84.835 1.804 1.44 2.806 2.085l-.291.458c-1.85-.56-2.627-1.91-4.176-2.896.387 1.326.691 2.715 1.452 3.902.387.202.742.335 1.005.679-1.305.455-1.397.938-1.986 2.127-.694 1.4-1.077 2.953-1.795 4.396-.09-.39-.385-.847-.561-1.218.846-1.715 1.94-3.186 2.711-4.971.17-.394-1.585-3.775-1.846-4.36-.64.137-1.353.242-1.959.47-.642.241-1.177.23-1.86.23l-.316-.002z"/><path fill="#020200" d="M268.375 232.566c.718-1.443 1.101-2.996 1.795-4.396.589-1.19.68-1.672 1.986-2.127-.263-.344-.618-.477-1.005-.68-.76-1.186-1.065-2.575-1.452-3.9 1.55.985 2.326 2.335 4.176 2.895l.29-.458c-1.001-.645-1.965-1.25-2.805-2.085l.327-.632c.708-.158 1.33-.483 1.976-.786.285-.517.522-.775 1.005-1.136.598.312.53.348.731.975l-.898.629.112.478.558.309 1.34-.41c1.33.513.322.749.603 1.678.1.331.477.791.667 1.105l.74.123c.577-.713 1.02-1.208 1.842-1.67 1.654.274 3.78.457 5.21 1.302l1.943 1.123c.827.662 1.54 1.182 2.028 2.122-.242 1.006-.62 1.574-1.6 2.159-.64.382-1.394.617-2.11.84-.417.996.137 2.027-.145 2.842-.066.192-1.907.988-2.15 1.087-1.197.487-4.36 2.128-5.637 2.12-.894-.005-2.386-.723-3.333-.93-1.291-.28-2.763-.23-4.088-.262-1.068-.694-1.509-1.264-2.106-2.315"/><path fill="#020200" d="M253.475 198.81c-.309.457-.578.893-1.087 1.175-1.526.841-6.55-5.56-8.73-6.014 1.583 1.62 5.092 3.753 5.93 5.741-.999 2.326-4.457 4.078-6.662 5.382-1.237-.222-2.7-.42-3.798-1.017-.828-.45-1.48-1.249-1.707-2.113-.077-.289.025-.14-.237-.357l-.117.237c-.513 1.022-1.018 2.471-2.092 3.086-.281.161-1.176.535-1.507.518-.69-.035-2.024-.678-2.693-.909-1.917-.662-3.765-1.245-5.772-1.638l-.411.106-.28-.298c-2.201-2.366-3.05-4.061-2.817-7.203l1.546-1.198c-1.214-2.755-2.959-4.93-4.54-7.483.088-.264.082-.279.24-.566.967-1.746 3.111-4.19 5.123-4.814l.186-.054c-1.045-.312-1.162-.454-1.872-1.255-.142-1.674 1.867-5.943 3.351-7.012.83-.597 2.621-.385 3.183-1.076.326-.402.333-1.269.736-1.804 2.069.41 2.197-.797 3.819-1.078.884-.154 2.894.115 3.808.272 1.114.19 2.123.954 2.73 1.83 1.038 1.501.614 2.815.292 4.463l.46.15c.42-.758 1.119-1.228 1.96-1.527 1.52-.542 3.48-1.113 5.02-.394.831.388 1.444.771 1.751 1.597-.516 1.087-1.332 2.005-2.087 2.952.631-.33 2.098-.995 2.513-1.483.887-1.041.594-1.163 1.986-1.863l.298.295c.698.694 1.252 1.182 1.465 2.152l1.375.384c1.287 1.585 1.557 2.484 1.895 4.394.294 1.653-.527 3.635-1.325 5.09l-.67.407-.422-.116c-.646-.162-1.226-.043-1.867.071l.028.304c.957-.02 2.14-.306 2.832.396.926.938 1.89 3.17 1.842 4.462-.033.87-.505 1.622-1.18 2.193l-1.651 1.063.83 1.402c-.412.688-.926.845-1.675 1.15"/><path fill="#D03B73" d="m253.475 198.81-.87-1.466c.447-.557 1.068-.784 1.715-1.086l.83 1.402c-.412.688-.926.845-1.675 1.15"/><path fill="#391030" d="M252.477 188.144c-.244.15-.466.294-.76.342-1.442.237-5.566.562-6.69-.14.479-.36 1.225-1.085 1.827-1.085.096.367.184.53.457.807 1.77.158 3.366-.24 5.138-.228z"/><path d="M240.557 175.881c-.133 1.342-.594 2.597-.822 3.924-.13.75-.016 1.675-.251 2.383-.24.721-.869 1.493-1.215 2.21l.39.207c.49-.337.963-.681 1.508-.935l1.508 1.374v.384c-1.281-.025-2.623-.161-3.854.215l-.29.808.452.658-.328.475c-.579-.337-1.016-.502-1.675-.664l-.834.478c-.035 1.663.777 2.227 1.43 3.631l-.26.47c-.535-.758-.573-1.004-1.508-1.315l-.838.61c-.975.71-1.618 1.1-2.847 1.301l-.372-.277.713-.135a4.46 4.46 0 0 0 2.554-1.99c-.12-.733-.094-1.48-.7-1.98-.814.707-1.07 1.03-2.195 1.21-.675-.457-1.288-.788-1.627-1.525l.622-.148.838.61.796-.146c.442-.72.884-1.209 1.549-1.754.513.031 1.02.052 1.524.162l.254.066.231-.542c-.76-.56-1.465-1.1-2.123-1.768l1.118-.056 1.426 1.322.92-.04c2.566-2.863 2.407-5.97 3.446-9.373z"/><path fill="#020200" d="M170.97 178.627c.672-3.233 2.51-6.28 5.422-8.128l1.344-.806 2.808 1.34.168-.116c-.328-.336-1.183-1.026-1.169-1.448.045-1.362.623-2.187 1.704-3.07.9-.735 1.827-1.044 2.982-1.239.591.194 1.814.852 2.344.878 1.913.095 4.097-1.799 6.146-1.016l.27-.136c1.534-.766 3.615-1.873 5.372-1.376 1.104.313 1.744.874 2.422 1.72.216.27.45.478.722.697l.744-.117c.128.567.258 1.115.29 1.696l.388.213c2.211 1.221 4.375 4.033 5.04 6.417.236.853-.024 2.016-.267 2.842 1.363 1.197 3.841 2.985 3.906 4.848.067 1.895-1.93 4.806-2.757 6.517l-5.8-1.449c1.475.856 4.368 1.914 5.123 3.346-.267 1.16-.958 1.73-1.817 2.526-.268 1.1-.564 3-1.606 3.668-.934.6-2.508.621-3.603 1.066-1.262-.133-2.653-.251-3.831-.734-2.438-.999-3.475-2.476-4.417-4.743h-.264l-.001.19c.054 1.928 2.147 3.896.37 5.514-1.487 1.353-3.74 1.586-5.692 1.482.576.181 1.073.356 1.608.635-.552.31-1.273.667-1.653 1.165-.457.6-.713 1.556-1.362 2.012-1.25.876-2.171.555-2.697 2.415-.121.428-.047.857.038 1.284-1.246.55-2.233 1.359-3.285 2.18-3.276-4.881-5.917-11.336-7.366-16.937l-.429-1.086c-.472-1.405-.194-2.832-.375-4.269-.285-2.26-1.962-5.93-.82-7.98"/><path fill="#273100" d="m195.711 182.01.21.342c.385.605.91 1.115 1.409 1.636 1.84-.017 1.865.348 3.141 1.516l-.5.312-.189-.098c-.578-.29-1.006-.442-1.652-.533l-.335.322.666.786-.166.63h-.331l-.15-.191c-.436-.542-.751-.871-1.377-1.208l-.43.166-.309-.66-.718-.037-.522.72-.564-1.59c.357-.934 1.066-1.457 1.817-2.114"/><path d="M192.634 192.023c-.017-.223-.022-.112.026-.368l.325-2.836-.55-.405c-1.416-.865-1.549-1.353-2.458-2.66-.451-.65-1.421-1.419-2.231-1.583l-2.5 2.3c-1.265-.536-3.02-1.231-4.427-.884l-.189.058c-.87.213-2.507.287-3.265-.141 1.145-.42 1.59-.508 2.342-1.468.131.17.484.75.645.836.623.328 2.988.168 4.021.51l.355.122c.315-.045.568-.076.846-.236 1.037-.597 1.59-1.329 1.848-2.448l-.467-.68c-1.35-.51-1.22.277-2.559.28l-.667-1.021c.947-.078 1.37-.072 2.139-.632-.705-1.96-.874-4.436-2.118-6.147-.466-.641-.804-1.37-1.315-1.974-.284-.337-.214-.133-.214-.56l.5-.157c1.297 1.02 2.945 4.388 3.123 5.984.074.66.217 1.265.395 1.907.794.763 1.075 1.13 2.262 1.138l.313-.01c-.42.487-.603.799-.797 1.398.218.163.475.38.734.49 1.116.476 1.421-.346 2.344-.41.859-.058 1.7.71 2.55.107.323-.229.487-.871.8-1.131.297-.246.964-.439 1.34-.587l.303.426-.377.768c-.751.657-1.46 1.18-1.817 2.114l.564 1.59.522-.72.718.036.309.66c-1.601.983-2.625 4.598-3.109 6.334z"/><path fill="#020200" d="M194.458 185.713c.035.92-.306 1.058-.915 1.75l-1.099-.065.056-.79c-.358-.92-.942-1.304-1.757-1.846l-.314-.206.523-.631c1.187-.273 1.806-.224 2.942.198z"/><path fill="#FEFEFE" d="M172.594 191.963c1.918 1.772 3.354 4.49 5.94 5.308 1.54-.507 1.724-1.324 2.893-1.98.585.68.804 1.133.94 1.977.169 1.056.497 1.58 1.415 2.206l1.117.693c.878-.158 1.625-.575 2.412-.958.576.181 1.073.356 1.608.635-.552.31-1.273.667-1.653 1.165-.457.6-.713 1.556-1.362 2.012-1.25.876-2.171.555-2.697 2.415-.121.428-.047.857.038 1.284-1.246.55-2.233 1.359-3.285 2.18-3.276-4.881-5.917-11.336-7.366-16.937"/><path fill="#fff" d="M525.318 156.043c1.09-.572 4.564.368 6.069.277 2.202-.133 4.444-.859 6.52-1.527.92 1.634 1.925 2.949 3.413 4.168 1.599.29 3.113.908 4.627 1.459-.88 1.042-.572 3.031-.715 4.407-.634 5.986-.585 12.268-1.599 18.186a46.4 46.4 0 0 1-3.104 10.56l-2.943 6.18c-4.43 10.62-9.57 22.875-20.07 29.418-4.565 2.842-10.483 4.456-15.878 5.028-7.307.775-14.975.58-22.308.216l-29.955-1.99c-12.316-.897-25.13-1.034-37.426.057-11.297 1.002-21.904 3.082-31.867 8.448-3.128 1.685-5.882 3.12-8.588 5.43 1.695-6.783 2.6-13.648 4.534-20.39 4.18-14.577 14.095-28.815 27.943-36.826 6.645-3.843 13.583-7.087 20.894-9.632 2.199-.766 4.401-1.656 6.679-2.19 10.391-2.434 21.047-2.859 31.587-4.24 3.98-.521 7.833-1.738 11.844-2.278 3.006-.405 6.03-.254 9.048-.43 7.655-.446 16.025-1.888 22.818-5.383 1.045-.538 3.202-1.485 3.787-2.504.67-.602 1.135-1.001 2.032-1.263 1.925.822 2.926 1.134 5.016.72l3.318-5.261c1.572.008 3.153.078 4.703-.188z"/><path fill="#463F33" d="M525.318 156.043c1.09-.572 4.564.368 6.069.277 2.202-.133 4.444-.859 6.52-1.527.92 1.634 1.925 2.949 3.413 4.168-1.948.275-3.922.041-5.909.303l-11.688 1.823c-1.862.315-4.176.97-6.047.856l3.318-5.26c1.572.008 3.153.078 4.703-.188z"/><path fill="#020200" d="M508.873 173.295c.21-1.14.398-1.465 1.434-2.149l1.514-.964.84.45c.317-.657.12-1.271 0-1.954l.254-.038c.817-.129 1.385-.305 2.086-.71l.303.077c.804.2 1.26.337 2.046.05.545-.712 1.536-2.526 2.51-2.614.612-.056 1.34-.024 1.844.291.55.342 1.166.53 1.782.735l.724.879-.12.328c-.117.37-.135.492-.04.85.897-.148 1.763-.87 2.554-1.302 1.728-.946 3.966-1.208 5.699-.123 1.027.642 1.844 1.697 2.058 2.848.184.956.224 1.96.112 2.924.478.424.8.495 1.434.665 1.55.413 2.304 1.71 3.032 2.966.384.671 1.01 1.554.92 2.326-.652 1.172-2.068 4.256-3.586 4.573-.46.096-.951.094-1.42.093l-.282.399.233.077c1.835.653 3.675 1.308 4.466 3.084.442.982.375 1.291-.031 2.237-.684.564-1.238 1.023-2.104 1.318a8.4 8.4 0 0 0-1.697.785l-.148 1.37c-2.362 2.58-6.011 4.193-9.052 5.969-.706-.417-2.828-1.014-3.247-1.46-.447-.474-.992-1.573-1.237-2.175-.344-.828-.737-1.156-1.479-1.705.75 1.392 1.912 2.65 1.988 4.265l-1.233 1.242c-.924.091-1.67.175-2.564-.147-1.804-.65-2.836-.04-4.635.35-1.077-.309-1.492-.872-2.162-1.67-.532-.636-2.354-.782-3.234-.975-1.098-1.807-1.67-3.496-2.161-5.525l2.532-1.871-.165-.193c-.625.306-1.228.632-1.947.638-.853.006-1.21-.076-1.787-.68-1.264-1.317-3.256-7.007-2.979-8.828.197-1.275 1.6-3.256 2.814-3.902.134-.074.344-.125.482-.168l.29-2.426c1.224-.42 2.05.294 3.36-.21"/><path fill="#273100" d="m520.458 185.799.715-.921c1.313-.752 2.166-.713 3.649-.628-.103.456-.112 1.154-.518 1.427-.795.533-2.032.625-2.952.428a4 4 0 0 1-.894-.306"/><path fill="#320E2E" d="m508.873 173.295 1.103 1.157c-.147.687-.111.743-.665 1.192-.83-.5-1.036-.594-2.01-.649l-2.077.936.29-2.426c1.224-.42 2.05.294 3.36-.21"/><path d="m524.259 182.734.46-.527c.92-.031 1.746-.057 2.653.13.094-.53.116-.608-.103-1.096l.366-.158c.572.526 1.528 1.694 2.189 2.014.898.438 3.868.327 5.029.4l-.282.398c-2.813-.096-6.4-.09-9.075-.871-.058-.087-1.058-.252-1.237-.29"/><path fill="#320E2E" d="M518.547 180.695c-.59-.962-1.121-2.01-1.867-2.868l-.817-.09c-.326-.576-.554-1.072-.72-1.706.331-.967.407-1.5-.102-2.456-.465-.88-1.036-1.657-1.376-2.596h.438c1.742 1.822 2.56 4.479 3.917 6.573l.504-.055.836-1.02c.16.45.071.664-.027 1.112-.215.983-.05 1.92.085 2.905z"/><path fill="#391030" d="M519.418 180.494c1.054-.017 1.411.46 2.286-.109v-.88l.456.207c.183 1.065.674 1.379 1.55 2.002l-.246 1.03-.59.237 1.282-.12.103-.127c.179.038 1.18.203 1.237.29l-.71.416.036.81c-1.483-.085-2.336-.124-3.65.628l-.714.92-.437.554-1 .096c-.89-.768-1.394-1.363-1.966-2.365l1.13-1.418c.76.477.281.91.67 1.718l.924-.089.514-.685-.66-.891c-.354-.14-.689-.238-.939-.529-.469-.552-.263-.85-.147-1.494z"/><path fill="#020200" d="M480.334 188.126c.38.796.773 1.718.867 2.588.156 1.423-.34 2.881-1.228 4.007l-.179.219c.657.402 1.13.992 1.764 1.363a3.8 3.8 0 0 1 1.595 1.782c.343.804.486 2.608.053 3.392-.969 1.752-3.166 5.009-5.265 5.561-2.001.529-1.782-.643-3.243-1.422.085.954 1.563 1.999 2.005 2.936.362.764.353 1.531.027 2.303-.897 2.127-3.662 3.19-5.739 4.032-2.621-.105-5.462-.402-7.369-2.286l-.205-.207-.161.137c-2.385 1.933-5.297 2.098-8.347 1.847-1.577-.13-4.283-.745-5.297-1.91-.576-1.926-.755-3.318.277-5.134.219-.385.17-.378.13-.787-.608.612-1.09 1.237-2.01 1.397-2.824-1.92-5.548-4.542-7.577-7.208 1.417-1.347 2.397-2.948 3.825-4.243l.235-.208c-1.01-.13-1.396-.292-2.058-1.073-.776-.915-1.247-1.916-1.076-3.106.399-2.775 1.377-6.682 3.83-8.497 1.735-.206 2.311-1.017 3.673-1.895 1.019.42 2.086.264 3.167.493 1.947 3.273 1.273 6.999 3.184 10.425.474-.364-2.979-9.469-1.862-12.26.491-1.219 4.22-3.43 5.534-3.57 2.054-.218 4.024 1.276 6.1.418l.742-.325c.817-.33 2.487-.596 3.314-.256 1.406.582 2.626 1.6 3.193 2.974l.076.207c.808-.11 1.777-.24 2.577-.029 1.487.39 3.023 2.332 3.725 3.604z"/><path fill="#320E2E" d="m478.61 183.395 1.724 4.731c-.955-.307-1.71-.595-2.51-1.18-.348-1.11.402-2.487.787-3.551"/><path d="m459.638 197.864.442-.64 1.121.206c-.692.765-1.281 1.342-2.197 1.884l.156.959c-.611.305-.929.284-1.62.276-1.265-.016-1.944.366-2.819 1.199l-4.207 4.203c.71-1.452 1.242-2.59 2.653-3.56 1.255-.865 2.688-2.988 3.89-3.574 1.005-.493 1.585.17 2.581-.953"/><path fill="#273100" d="m459.638 197.864-.906-1.31c.286-.056.54-.09.835-.106l.286-.012c-.54-.767-1.885-1.97-1.907-2.881l.366-.158.554.79c.433.667.598.86 1.37 1.217.778-.366 1.314-.795 1.94-1.352l.24-.216c1.175.04 1.197.208 2.068.984l-.545 1.42.487.574c1.21-.149 1.43-.76 2.34-1.457.094.62-.018 1.077-.174 1.671-.697.466-1.12.878-2 .945l-1.358-1.103c-1.121-.07-1.14-.083-2.033.56l-1.12-.207z"/><path d="M473.805 196.555c.63-.143.746-.223 1.335 0-2.157 1.135-4.703 1.323-6.775 2.374 2.265 1.487 3.872 3.22 5.57 5.25-1.331-.136-2.35-1.158-3.22-2.024-.965-.788-2.412-2.292-3.61-2.601l-.888 1.199c-.773.177-1.358.051-2.126-.094.286-.74.639-1.28 1.143-1.903.925-.238 1.38-.495 2.028-1.17l.174-.19c2.626 1.01 3.788-.868 6.369-.841"/></svg>